<svg xmlns="http://www.w3.org/2000/svg" width="557" height="551" viewBox="0 0 557 551" version="1.1"><path d="M 166.138 140.552 C 147.201 151.064, 147.196 151, 166.898 151 L 182.962 151 182.472 155.250 C 182.203 157.588, 181.524 175.025, 180.963 194 C 180.403 212.975, 179.520 240.425, 179.002 255 C 178.485 269.575, 178.047 287.462, 178.030 294.750 L 178 308 194 308 L 210 308 210.007 302.250 C 210.011 299.087, 210.308 293.394, 210.666 289.597 L 211.318 282.694 206.909 283.399 C 190.832 285.973, 190.554 285.478, 202.351 275.298 L 210.698 268.096 211.325 258.798 C 211.670 253.684, 212.450 227.225, 213.060 200 C 214.341 142.736, 212.691 148.866, 226.500 150.073 C 246.847 151.852, 261.542 156.849, 270.381 164.997 C 288.449 181.652, 283.312 221.943, 261 238.577 L 257.500 241.186 264.529 240.823 C 307.246 238.615, 333.080 179.920, 304.094 150.934 C 288.683 135.523, 275.932 132.650, 222.572 132.566 L 180.645 132.500 166.138 140.552 M 303 249.520 C 303 249.828, 303.900 251.844, 305 254 C 306.100 256.156, 307 258.598, 307 259.426 C 307 260.719, 295.243 269.147, 288.224 272.886 L 285.947 274.099 289.452 278.376 C 293.991 283.916, 297.847 292.720, 299.337 300.949 L 300.524 307.500 317.262 307.774 L 334 308.048 333.993 302.274 C 333.980 291.732, 329.141 275.516, 323.553 267.293 C 318.213 259.434, 303 246.279, 303 249.520 M 295.724 251.609 C 295.419 251.914, 285.344 252.477, 273.335 252.859 L 251.500 253.554 243.630 257.800 C 235.565 262.152, 230.154 265.919, 230.055 267.250 C 230.025 267.663, 234.309 268, 239.575 268 L 249.150 268 248.825 288.001 L 248.500 308.002 260.750 308.001 L 273 308 273.106 296.250 C 273.164 289.788, 273.502 280.463, 273.856 275.529 L 274.500 266.558 282.500 262.167 C 292.302 256.787, 298.437 252.388, 297.203 251.625 C 296.695 251.311, 296.029 251.304, 295.724 251.609 M 406.500 252.970 C 387.618 253.637, 386.645 253.898, 375.011 261.424 C 365.744 267.419, 365.998 268, 377.893 268 C 389.960 268, 389 266.135, 389 289.582 L 389 308 402 308 L 415 308 415 286.586 L 415 265.172 421.250 261.629 C 424.688 259.680, 429.525 256.718, 432 255.047 L 436.500 252.009 430 252.189 C 426.425 252.289, 415.850 252.640, 406.500 252.970 M 381.500 317 C 379.850 317.420, 379.102 317.817, 379.838 317.882 C 380.891 317.975, 381.105 320.353, 380.838 329.001 C 380.506 339.807, 381.806 343.358, 384.500 339 C 384.840 338.450, 384.618 338, 384.007 338 C 383.294 338, 383.004 336.115, 383.198 332.750 L 383.500 327.500 389.870 327.199 L 396.239 326.898 395.822 333.449 C 395.415 339.842, 397.259 342.625, 399.500 339 C 399.840 338.450, 399.529 338.001, 398.809 338.002 C 397.277 338.005, 397.497 319.312, 399.050 317.440 C 399.679 316.682, 398.975 316.499, 396.726 316.835 C 394.952 317.100, 394.063 317.508, 394.750 317.741 C 395.465 317.985, 396 319.843, 396 322.083 L 396 326 389.903 326 L 383.807 326 384.153 320.999 C 384.344 318.249, 384.500 316.052, 384.500 316.118 C 384.500 316.183, 383.150 316.580, 381.500 317 M 151.667 318.250 C 152.168 318.938, 152.336 324.113, 152.039 329.752 L 151.500 340.004 155 339.866 C 156.925 339.790, 157.585 339.545, 156.466 339.323 C 154.685 338.968, 153.797 320.091, 155.473 318.222 C 156.836 316.702, 161 320.376, 161 323.098 C 161 325.782, 161.221 326.062, 162.500 325 C 164.614 323.246, 164.366 319.266, 162.066 318.035 C 159.164 316.482, 150.508 316.661, 151.667 318.250 M 179.813 318.750 C 178.989 319.712, 176.832 324.243, 175.018 328.819 C 173.204 333.394, 171.076 337.781, 170.288 338.569 C 169.047 339.810, 169.127 340, 170.897 340 C 172.114 340, 172.747 339.495, 172.467 338.750 C 171.409 335.941, 175.801 331, 179.355 331 C 182.514 331, 182.824 331.301, 184 335.500 C 185.262 340.006, 186.868 341.004, 189.835 339.123 C 190.869 338.468, 190.749 338.168, 189.299 337.788 C 187.897 337.422, 186.705 334.755, 184.543 327.150 C 182.955 321.567, 181.579 317, 181.483 317 C 181.388 317, 180.636 317.788, 179.813 318.750 M 196.825 325.562 C 197.004 330.274, 196.690 335.450, 196.127 337.065 C 195.257 339.563, 195.357 339.998, 196.802 339.985 C 198.812 339.967, 202.187 338.039, 200.250 338.015 C 198.773 337.997, 198.472 321.381, 199.908 319.115 C 202.493 315.034, 208.769 320.848, 206.948 325.637 C 205.905 328.381, 205.913 328.388, 207.948 326.547 C 212.839 322.121, 209.478 317.001, 201.679 316.998 L 196.500 316.995 196.825 325.562 M 220.868 317.897 C 221.927 318.568, 222.147 321.158, 221.843 329.382 C 221.509 338.404, 221.679 340, 222.975 339.999 C 224.253 339.997, 224.500 338.137, 224.500 328.498 L 224.500 316.998 222 317.015 C 220.201 317.026, 219.884 317.274, 220.868 317.897 M 232.798 317.854 C 233.762 318.465, 232.927 319.977, 229.550 323.733 L 225.005 328.789 229.547 333.841 C 234.520 339.373, 237.027 340.665, 239.730 339.091 C 241.400 338.119, 241.401 338.059, 239.753 338.030 C 237.802 337.996, 230.464 331.735, 228.858 328.735 C 228.033 327.193, 228.305 326.255, 230.189 324.148 C 236.559 317.025, 236.574 316.998, 233.905 317.015 C 232.258 317.026, 231.909 317.290, 232.798 317.854 M 253.300 318.142 C 252.681 318.889, 250.753 323.100, 249.016 327.500 C 247.279 331.900, 245.205 336.512, 244.406 337.750 C 243.126 339.734, 243.134 340, 244.477 340 C 245.315 340, 245.893 339.663, 245.762 339.250 C 245.155 337.336, 248.454 331.924, 250.547 331.399 C 254.894 330.308, 256.449 331.299, 257.390 335.763 C 258.307 340.107, 259.881 341.015, 263 339 C 264.293 338.164, 264.267 338.029, 262.811 338.015 C 261.555 338.004, 260.454 335.752, 258.523 329.250 C 254.862 316.915, 254.664 316.494, 253.300 318.142 M 267 318 C 265.917 318.700, 266.847 318.974, 270.341 318.985 L 275.182 319 274.841 329.501 C 274.538 338.831, 274.689 340.002, 276.191 340.001 C 278.217 340, 279.488 338.329, 277.872 337.791 C 277.055 337.518, 276.937 334.669, 277.455 327.756 L 278.179 318.102 282.839 317.731 C 285.403 317.527, 283.225 317.286, 278 317.196 C 272.775 317.105, 267.825 317.467, 267 318 M 292.464 327.080 C 292.507 339.158, 296.980 343.757, 304 338.940 C 305.247 338.084, 305.163 337.937, 303.500 338.070 C 296.253 338.650, 295 336.946, 295 326.512 C 295 320.771, 295.390 318.009, 296.250 317.662 C 296.938 317.385, 296.359 317.122, 294.964 317.079 L 292.428 317 292.464 327.080 M 307.811 328.498 C 308.279 345.835, 311.500 345.837, 311.500 328.500 C 311.500 317.667, 311.384 317, 309.500 316.998 C 307.598 316.996, 307.515 317.559, 307.811 328.498 M 320.500 328.502 L 320.500 340.002 325 339.985 C 327.475 339.977, 330.175 339.533, 331 339 C 332.082 338.301, 331.137 338.026, 327.614 338.015 L 322.727 338 323.430 327.500 C 324.083 317.761, 324.002 317, 322.317 317.001 C 320.666 317.003, 320.500 318.056, 320.500 328.502 M 338.500 328.500 L 338.500 340 343.691 340 C 346.546 340, 349.160 339.550, 349.500 339 C 349.876 338.392, 348.427 338, 345.809 338.001 L 341.500 338.002 341.841 327.501 C 342.155 317.845, 342.034 317, 340.341 317 C 338.660 317, 338.500 317.998, 338.500 328.500 M 363.813 318.750 C 362.989 319.712, 360.832 324.243, 359.018 328.819 C 357.204 333.394, 355.076 337.781, 354.288 338.569 C 353.047 339.810, 353.127 340, 354.897 340 C 356.114 340, 356.747 339.495, 356.467 338.750 C 355.409 335.941, 359.801 331, 363.355 331 C 366.514 331, 366.824 331.301, 368 335.500 C 369.262 340.006, 370.868 341.004, 373.835 339.123 C 374.869 338.468, 374.749 338.168, 373.299 337.788 C 371.897 337.422, 370.705 334.755, 368.543 327.150 C 366.955 321.567, 365.579 317, 365.483 317 C 365.388 317, 364.636 317.788, 363.813 318.750 M 177.794 325.842 L 176.161 330 179.080 330 C 182.290 330, 182.570 329.047, 180.669 324.592 L 179.427 321.684 177.794 325.842 M 251.550 325.358 C 249.657 329.738, 249.858 330.281, 253.200 329.825 C 255.493 329.512, 255.539 329.348, 254.401 325.500 L 253.218 321.500 251.550 325.358 M 361.794 325.842 L 360.161 330 363.080 330 C 366.290 330, 366.570 329.047, 364.669 324.592 L 363.427 321.684 361.794 325.842 M 159.500 328.195 C 163.449 330.434, 164.131 334.020, 161.250 337.387 C 159.521 339.408, 159.529 339.413, 162 337.851 C 167.637 334.287, 166.347 326.957, 160.095 327.030 C 157.648 327.059, 157.614 327.126, 159.500 328.195 M 202.605 328.830 C 201.721 330.260, 212.671 340.340, 214.391 339.680 C 215.566 339.229, 214.534 337.743, 210.130 333.543 C 204.144 327.833, 203.479 327.416, 202.605 328.830 M 175.211 359.250 C 173.663 373.416, 170.944 381.723, 166.350 386.317 L 162.667 390 190.261 390 C 231.639 390, 234.702 389.386, 235.132 381 L 235.414 375.500 215.632 374.342 C 193.639 373.055, 193.442 373, 197.424 369.307 C 200.242 366.695, 205.294 356.979, 206.554 351.750 L 207.217 349 191.774 349 L 176.331 349 175.211 359.250 M 247.490 371.469 C 246.042 415.886, 249.420 431.636, 263.379 445.541 C 287.847 469.914, 335.894 465.665, 379.374 435.283 C 387.871 429.346, 388.954 429.391, 388.985 435.688 C 389.008 440.556, 386.104 452.096, 383.912 455.844 L 381.957 459.188 400.728 458.749 C 421.199 458.271, 424.576 457.502, 438.561 450.137 C 445.717 446.369, 445.415 446.265, 425.704 445.697 C 408.470 445.201, 408.307 445.163, 409.996 442.008 C 413.754 434.986, 414.193 430.061, 414.702 389.250 L 415.205 349 402.102 349 L 389 349 389 386.155 L 389 423.310 385.202 426.905 C 370.430 440.888, 333.568 448.914, 311.400 442.973 C 280.611 434.722, 272 419.930, 272 375.290 L 272 349 260.111 349 L 248.223 349 247.490 371.469 M 287.750 354.600 C 284.442 359.473, 284 360.836, 284 366.154 L 284 372.184 290.570 368.572 C 298.694 364.107, 309.724 355.862, 312.822 351.940 L 315.145 349 303.322 349.038 L 291.500 349.076 287.750 354.600" stroke="none" fill="#07080a" fill-rule="evenodd"/><path d="M -0 275.502 L -0 551.004 278.750 550.752 L 557.500 550.500 557.752 275.250 L 558.004 0 279.002 0 L 0 0 -0 275.502 M 0.493 276 C 0.493 427.525, 0.609 489.513, 0.750 413.750 C 0.891 337.988, 0.891 214.013, 0.750 138.250 C 0.609 62.488, 0.493 124.475, 0.493 276 M 166.138 140.552 C 147.201 151.064, 147.196 151, 166.898 151 L 182.962 151 182.472 155.250 C 182.203 157.588, 181.524 175.025, 180.963 194 C 180.403 212.975, 179.520 240.425, 179.002 255 C 178.485 269.575, 178.047 287.462, 178.030 294.750 L 178 308 194 308 L 210 308 210.007 302.250 C 210.011 299.087, 210.308 293.394, 210.666 289.597 L 211.318 282.694 206.909 283.399 C 190.832 285.973, 190.554 285.478, 202.351 275.298 L 210.698 268.096 211.325 258.798 C 211.670 253.684, 212.450 227.225, 213.060 200 C 214.341 142.736, 212.691 148.866, 226.500 150.073 C 246.847 151.852, 261.542 156.849, 270.381 164.997 C 288.449 181.652, 283.312 221.943, 261 238.577 L 257.500 241.186 264.529 240.823 C 307.246 238.615, 333.080 179.920, 304.094 150.934 C 288.683 135.523, 275.932 132.650, 222.572 132.566 L 180.645 132.500 166.138 140.552 M 303 249.520 C 303 249.828, 303.900 251.844, 305 254 C 306.100 256.156, 307 258.598, 307 259.426 C 307 260.719, 295.243 269.147, 288.224 272.886 L 285.947 274.099 289.452 278.376 C 293.991 283.916, 297.847 292.720, 299.337 300.949 L 300.524 307.500 317.262 307.774 L 334 308.048 333.993 302.274 C 333.980 291.732, 329.141 275.516, 323.553 267.293 C 318.213 259.434, 303 246.279, 303 249.520 M 295.724 251.609 C 295.419 251.914, 285.344 252.477, 273.335 252.859 L 251.500 253.554 243.630 257.800 C 235.565 262.152, 230.154 265.919, 230.055 267.250 C 230.025 267.663, 234.309 268, 239.575 268 L 249.150 268 248.825 288.001 L 248.500 308.002 260.750 308.001 L 273 308 273.106 296.250 C 273.164 289.788, 273.502 280.463, 273.856 275.529 L 274.500 266.558 282.500 262.167 C 292.302 256.787, 298.437 252.388, 297.203 251.625 C 296.695 251.311, 296.029 251.304, 295.724 251.609 M 406.500 252.970 C 387.618 253.637, 386.645 253.898, 375.011 261.424 C 365.744 267.419, 365.998 268, 377.893 268 C 389.960 268, 389 266.135, 389 289.582 L 389 308 402 308 L 415 308 415 286.586 L 415 265.172 421.250 261.629 C 424.688 259.680, 429.525 256.718, 432 255.047 L 436.500 252.009 430 252.189 C 426.425 252.289, 415.850 252.640, 406.500 252.970 M 381.500 317 C 379.850 317.420, 379.102 317.817, 379.838 317.882 C 380.891 317.975, 381.105 320.353, 380.838 329.001 C 380.506 339.807, 381.806 343.358, 384.500 339 C 384.840 338.450, 384.618 338, 384.007 338 C 383.294 338, 383.004 336.115, 383.198 332.750 L 383.500 327.500 389.870 327.199 L 396.239 326.898 395.822 333.449 C 395.415 339.842, 397.259 342.625, 399.500 339 C 399.840 338.450, 399.529 338.001, 398.809 338.002 C 397.277 338.005, 397.497 319.312, 399.050 317.440 C 399.679 316.682, 398.975 316.499, 396.726 316.835 C 394.952 317.100, 394.063 317.508, 394.750 317.741 C 395.465 317.985, 396 319.843, 396 322.083 L 396 326 389.903 326 L 383.807 326 384.153 320.999 C 384.344 318.249, 384.500 316.052, 384.500 316.118 C 384.500 316.183, 383.150 316.580, 381.500 317 M 151.667 318.250 C 152.168 318.938, 152.336 324.113, 152.039 329.752 L 151.500 340.004 155 339.866 C 156.925 339.790, 157.585 339.545, 156.466 339.323 C 154.685 338.968, 153.797 320.091, 155.473 318.222 C 156.836 316.702, 161 320.376, 161 323.098 C 161 325.782, 161.221 326.062, 162.500 325 C 164.614 323.246, 164.366 319.266, 162.066 318.035 C 159.164 316.482, 150.508 316.661, 151.667 318.250 M 179.813 318.750 C 178.989 319.712, 176.832 324.243, 175.018 328.819 C 173.204 333.394, 171.076 337.781, 170.288 338.569 C 169.047 339.810, 169.127 340, 170.897 340 C 172.114 340, 172.747 339.495, 172.467 338.750 C 171.409 335.941, 175.801 331, 179.355 331 C 182.514 331, 182.824 331.301, 184 335.500 C 185.262 340.006, 186.868 341.004, 189.835 339.123 C 190.869 338.468, 190.749 338.168, 189.299 337.788 C 187.897 337.422, 186.705 334.755, 184.543 327.150 C 182.955 321.567, 181.579 317, 181.483 317 C 181.388 317, 180.636 317.788, 179.813 318.750 M 196.825 325.562 C 197.004 330.274, 196.690 335.450, 196.127 337.065 C 195.257 339.563, 195.357 339.998, 196.802 339.985 C 198.812 339.967, 202.187 338.039, 200.250 338.015 C 198.773 337.997, 198.472 321.381, 199.908 319.115 C 202.493 315.034, 208.769 320.848, 206.948 325.637 C 205.905 328.381, 205.913 328.388, 207.948 326.547 C 212.839 322.121, 209.478 317.001, 201.679 316.998 L 196.500 316.995 196.825 325.562 M 220.868 317.897 C 221.927 318.568, 222.147 321.158, 221.843 329.382 C 221.509 338.404, 221.679 340, 222.975 339.999 C 224.253 339.997, 224.500 338.137, 224.500 328.498 L 224.500 316.998 222 317.015 C 220.201 317.026, 219.884 317.274, 220.868 317.897 M 232.798 317.854 C 233.762 318.465, 232.927 319.977, 229.550 323.733 L 225.005 328.789 229.547 333.841 C 234.520 339.373, 237.027 340.665, 239.730 339.091 C 241.400 338.119, 241.401 338.059, 239.753 338.030 C 237.802 337.996, 230.464 331.735, 228.858 328.735 C 228.033 327.193, 228.305 326.255, 230.189 324.148 C 236.559 317.025, 236.574 316.998, 233.905 317.015 C 232.258 317.026, 231.909 317.290, 232.798 317.854 M 253.300 318.142 C 252.681 318.889, 250.753 323.100, 249.016 327.500 C 247.279 331.900, 245.205 336.512, 244.406 337.750 C 243.126 339.734, 243.134 340, 244.477 340 C 245.315 340, 245.893 339.663, 245.762 339.250 C 245.155 337.336, 248.454 331.924, 250.547 331.399 C 254.894 330.308, 256.449 331.299, 257.390 335.763 C 258.307 340.107, 259.881 341.015, 263 339 C 264.293 338.164, 264.267 338.029, 262.811 338.015 C 261.555 338.004, 260.454 335.752, 258.523 329.250 C 254.862 316.915, 254.664 316.494, 253.300 318.142 M 267 318 C 265.917 318.700, 266.847 318.974, 270.341 318.985 L 275.182 319 274.841 329.501 C 274.538 338.831, 274.689 340.002, 276.191 340.001 C 278.217 340, 279.488 338.329, 277.872 337.791 C 277.055 337.518, 276.937 334.669, 277.455 327.756 L 278.179 318.102 282.839 317.731 C 285.403 317.527, 283.225 317.286, 278 317.196 C 272.775 317.105, 267.825 317.467, 267 318 M 292.464 327.080 C 292.507 339.158, 296.980 343.757, 304 338.940 C 305.247 338.084, 305.163 337.937, 303.500 338.070 C 296.253 338.650, 295 336.946, 295 326.512 C 295 320.771, 295.390 318.009, 296.250 317.662 C 296.938 317.385, 296.359 317.122, 294.964 317.079 L 292.428 317 292.464 327.080 M 307.811 328.498 C 308.279 345.835, 311.500 345.837, 311.500 328.500 C 311.500 317.667, 311.384 317, 309.500 316.998 C 307.598 316.996, 307.515 317.559, 307.811 328.498 M 320.500 328.502 L 320.500 340.002 325 339.985 C 327.475 339.977, 330.175 339.533, 331 339 C 332.082 338.301, 331.137 338.026, 327.614 338.015 L 322.727 338 323.430 327.500 C 324.083 317.761, 324.002 317, 322.317 317.001 C 320.666 317.003, 320.500 318.056, 320.500 328.502 M 338.500 328.500 L 338.500 340 343.691 340 C 346.546 340, 349.160 339.550, 349.500 339 C 349.876 338.392, 348.427 338, 345.809 338.001 L 341.500 338.002 341.841 327.501 C 342.155 317.845, 342.034 317, 340.341 317 C 338.660 317, 338.500 317.998, 338.500 328.500 M 363.813 318.750 C 362.989 319.712, 360.832 324.243, 359.018 328.819 C 357.204 333.394, 355.076 337.781, 354.288 338.569 C 353.047 339.810, 353.127 340, 354.897 340 C 356.114 340, 356.747 339.495, 356.467 338.750 C 355.409 335.941, 359.801 331, 363.355 331 C 366.514 331, 366.824 331.301, 368 335.500 C 369.262 340.006, 370.868 341.004, 373.835 339.123 C 374.869 338.468, 374.749 338.168, 373.299 337.788 C 371.897 337.422, 370.705 334.755, 368.543 327.150 C 366.955 321.567, 365.579 317, 365.483 317 C 365.388 317, 364.636 317.788, 363.813 318.750 M 177.794 325.842 L 176.161 330 179.080 330 C 182.290 330, 182.570 329.047, 180.669 324.592 L 179.427 321.684 177.794 325.842 M 251.550 325.358 C 249.657 329.738, 249.858 330.281, 253.200 329.825 C 255.493 329.512, 255.539 329.348, 254.401 325.500 L 253.218 321.500 251.550 325.358 M 361.794 325.842 L 360.161 330 363.080 330 C 366.290 330, 366.570 329.047, 364.669 324.592 L 363.427 321.684 361.794 325.842 M 159.500 328.195 C 163.449 330.434, 164.131 334.020, 161.250 337.387 C 159.521 339.408, 159.529 339.413, 162 337.851 C 167.637 334.287, 166.347 326.957, 160.095 327.030 C 157.648 327.059, 157.614 327.126, 159.500 328.195 M 202.605 328.830 C 201.721 330.260, 212.671 340.340, 214.391 339.680 C 215.566 339.229, 214.534 337.743, 210.130 333.543 C 204.144 327.833, 203.479 327.416, 202.605 328.830 M 175.211 359.250 C 173.663 373.416, 170.944 381.723, 166.350 386.317 L 162.667 390 190.261 390 C 231.639 390, 234.702 389.386, 235.132 381 L 235.414 375.500 215.632 374.342 C 193.639 373.055, 193.442 373, 197.424 369.307 C 200.242 366.695, 205.294 356.979, 206.554 351.750 L 207.217 349 191.774 349 L 176.331 349 175.211 359.250 M 247.490 371.469 C 246.042 415.886, 249.420 431.636, 263.379 445.541 C 287.847 469.914, 335.894 465.665, 379.374 435.283 C 387.871 429.346, 388.954 429.391, 388.985 435.688 C 389.008 440.556, 386.104 452.096, 383.912 455.844 L 381.957 459.188 400.728 458.749 C 421.199 458.271, 424.576 457.502, 438.561 450.137 C 445.717 446.369, 445.415 446.265, 425.704 445.697 C 408.470 445.201, 408.307 445.163, 409.996 442.008 C 413.754 434.986, 414.193 430.061, 414.702 389.250 L 415.205 349 402.102 349 L 389 349 389 386.155 L 389 423.310 385.202 426.905 C 370.430 440.888, 333.568 448.914, 311.400 442.973 C 280.611 434.722, 272 419.930, 272 375.290 L 272 349 260.111 349 L 248.223 349 247.490 371.469 M 287.750 354.600 C 284.442 359.473, 284 360.836, 284 366.154 L 284 372.184 290.570 368.572 C 298.694 364.107, 309.724 355.862, 312.822 351.940 L 315.145 349 303.322 349.038 L 291.500 349.076 287.750 354.600" stroke="none" fill="#fbfbfb" fill-rule="evenodd"/></svg>