<svg xmlns="http://www.w3.org/2000/svg" viewBox="0 0 892.51 241.45"><defs><style>.cls-1{fill:#d02531;}.cls-2{fill:#231f20;}</style></defs><g id="Layer_2" data-name="Layer 2"><g id="Layer_1-2" data-name="Layer 1"><polygon class="cls-1" points="626.54 104.86 626.54 137 552.52 137 552.52 209.81 518.34 209.81 518.34 137 444.31 137 444.31 104.86 518.34 104.86 518.34 31.64 552.52 31.64 552.52 104.86 626.54 104.86"/><polygon class="cls-1" points="892.51 100.06 892.51 141.91 791.36 141.91 791.36 241.45 746.9 241.45 746.9 141.91 645.76 141.91 645.76 100.06 746.9 100.06 746.9 0 791.36 0 791.36 100.06 892.51 100.06"/><path class="cls-1" d="M374.48,28.36H323L241.46,213.09h53.31l14.4-35.89h78.35l14.41,35.89h54.35ZM324.63,138.67l23.72-59.09,23.71,59.09Z"/><polygon class="cls-1" points="3.5 99.44 19.2 99.44 44.16 131.52 44.16 99.44 60.81 99.44 60.81 160.13 46.07 160.13 20.15 126.84 20.15 160.13 3.5 160.13 3.5 99.44"/><path class="cls-1" d="M90.81,99H107l25.84,61.12h-18l-4.42-10.84H87l-4.34,10.84H65Zm14.74,37.19L98.79,119,91.94,136.2Z"/><path class="cls-1" d="M161.47,99h16.21l25.84,61.12h-18l-4.42-10.84H157.65l-4.33,10.84H135.63Zm14.74,37.19L169.44,119,162.6,136.2Z"/><path class="cls-1" d="M200.4,130v-.17c0-17.69,13.61-31.56,32-31.56,12.4,0,20.37,5.2,25.75,12.66l-12.66,9.79c-3.47-4.33-7.46-7.1-13.27-7.1-8.49,0-14.47,7.19-14.47,16v.18c0,9.1,6,16.21,14.47,16.21,6.33,0,10.06-2.95,13.7-7.37l12.66,9c-5.72,7.89-13.44,13.69-26.88,13.69-17.34,0-31.29-13.26-31.29-31.38"/><path class="cls-2" d="M0,191.62v-.1c0-10,7.87-17.91,18.55-17.91a20.08,20.08,0,0,1,14,5l-5.61,6.74a12.13,12.13,0,0,0-8.31-3.25c-5,0-8.81,4.18-8.81,9.45v.1c0,5.56,3.89,9.54,9.35,9.54a9.7,9.7,0,0,0,5.51-1.43V195.6H17.86v-7H33.7v15.49a23.3,23.3,0,0,1-15,5.32C8,209.43,0,202.05,0,191.62"/><path class="cls-2" d="M39,174.3H55.3c5.27,0,8.91,1.38,11.22,3.74a10.66,10.66,0,0,1,3,8v.1a10.89,10.89,0,0,1-7.09,10.57l8.22,12h-11l-6.94-10.43H48.56v10.43H39Zm15.84,16.53c3.25,0,5.11-1.57,5.11-4.08v-.1c0-2.71-2-4.08-5.16-4.08H48.56v8.26Z"/><path class="cls-2" d="M87.28,174.05h9.2l14.66,34.69H100.91l-2.51-6.15H85.12l-2.46,6.15h-10Zm8.37,21.11-3.84-9.79-3.89,9.79Z"/><path class="cls-2" d="M114.49,174.3h13.29c12.29,0,19.43,7.08,19.43,17v.1c0,9.94-7.24,17.32-19.63,17.32H114.49Zm13.43,26c5.71,0,9.5-3.15,9.5-8.71v-.1c0-5.51-3.79-8.71-9.5-8.71H124v17.52Z"/><polygon class="cls-2" points="152.13 174.3 179.83 174.3 179.83 182.42 161.58 182.42 161.58 187.63 178.11 187.63 178.11 195.16 161.58 195.16 161.58 200.62 180.07 200.62 180.07 208.74 152.13 208.74 152.13 174.3"/></g></g></svg>