<svg xmlns="http://www.w3.org/2000/svg" width="484" height="485" viewBox="0 0 484 485" version="1.1"><path d="M 66 242.500 L 66 290 238.500 290 L 411 290 411 242.500 L 411 195 238.500 195 L 66 195 66 242.500 M 68 242.500 L 68 287 238 287 L 408 287 408 242.500 L 408 198 238 198 L 68 198 68 242.500 M 75 242.500 L 75 281 156.500 281 L 238 281 238 242.500 L 238 204 156.500 204 L 75 204 75 242.500 M 113 242 L 113 255 120.500 255 C 126.667 255, 128.356 254.644, 130 253 C 132.340 250.660, 132.692 244.819, 130.597 243.081 C 129.394 242.082, 129.397 241.512, 130.615 239.070 C 132.299 235.694, 131.192 231.708, 128.114 230.061 C 127.023 229.477, 123.177 229, 119.566 229 L 113 229 113 242 M 140.006 236.750 C 140.015 250.473, 142.566 255, 150.288 255 C 158.426 255, 161 250.803, 161 237.532 C 161 229.719, 160.834 229, 159.036 229 C 157.240 229, 157.048 229.823, 156.786 238.645 C 156.516 247.741, 156.350 248.402, 153.870 250.251 C 152.154 251.530, 150.506 251.978, 149.126 251.540 C 144.689 250.132, 144 248.370, 144 238.429 C 144 229.667, 143.859 229, 142 229 C 140.172 229, 140 229.665, 140.006 236.750 M 170 242 C 170 254.333, 170.103 255, 172 255 C 173.897 255, 174 254.333, 174 242 C 174 229.667, 173.897 229, 172 229 C 170.103 229, 170 229.667, 170 242 M 182 230.500 C 182 231.583, 183.111 232, 186 232 L 190 232 190 243.500 C 190 254.333, 190.116 255, 192 255 C 193.884 255, 194 254.333, 194 243.500 L 194 232 198.500 232 C 201.833 232, 203 231.611, 203 230.500 C 203 229.262, 201.167 229, 192.500 229 C 183.833 229, 182 229.262, 182 230.500 M 248 242 L 248 255 255.550 255 C 260.225 255, 264.178 254.442, 265.932 253.535 C 269.715 251.579, 270.719 247.477, 268.247 244.079 C 266.532 241.721, 266.501 241.272, 267.889 238.843 C 269.117 236.691, 269.180 235.689, 268.215 233.573 C 266.648 230.133, 263.356 229, 254.935 229 L 248 229 248 242 M 274 242 L 274 255 277.500 255 L 281 255 281 250 L 281 245 285 245 L 289 245 289 250 L 289 255 292.500 255 L 296 255 296 242 L 296 229 292.500 229 C 289.019 229, 289 229.024, 289 233.500 L 289 238 285 238 L 281 238 281 233.500 C 281 229.024, 280.981 229, 277.500 229 L 274 229 274 242 M 308.270 230.428 C 298.049 235.044, 298.913 251.182, 309.580 254.899 C 321.244 258.965, 332.547 247.810, 327.353 237.358 C 326.334 235.307, 324.314 232.763, 322.864 231.705 C 319.412 229.184, 312.386 228.569, 308.270 230.428 M 333 241.894 L 333 255 336.437 255 C 339.583 255, 339.900 254.725, 340.187 251.750 C 340.485 248.660, 340.740 248.472, 345.388 247.939 C 351.515 247.235, 354 244.530, 354 238.564 C 354 231.858, 350.864 229.599, 340.924 229.148 L 333 228.788 333 241.894 M 365.646 229.764 C 365.019 230.778, 356 253.999, 356 254.599 C 356 254.819, 357.748 255, 359.883 255 C 362.926 255, 363.880 254.567, 364.290 253 C 364.716 251.372, 365.654 251, 369.339 251 C 372.987 251, 373.988 251.388, 374.500 253 C 374.991 254.548, 376.013 255, 379.023 255 L 382.910 255 380.343 248.250 C 378.930 244.537, 376.750 238.800, 375.498 235.500 C 373.363 229.871, 373.005 229.481, 369.704 229.195 C 367.769 229.028, 365.943 229.284, 365.646 229.764 M 386 242 L 386 255 395 255 L 404 255 404 251.500 L 404 248 398.500 248 L 393 248 393 238.500 L 393 229 389.500 229 L 386 229 386 242 M 117 236 L 117 240 121.300 240 C 125.890 240, 128 238.688, 128 235.835 C 128 233.535, 125.024 232, 120.566 232 C 117.072 232, 117 232.081, 117 236 M 255 236.500 C 255 238.600, 255.471 239, 257.941 239 C 259.559 239, 261.172 238.530, 261.527 237.956 C 262.515 236.358, 260.041 234, 257.378 234 C 255.508 234, 255 234.534, 255 236.500 M 340 238.434 C 340 241.738, 340.223 242, 343.031 242 C 348.495 242, 348.150 235.841, 342.649 235.184 C 340.220 234.893, 340 235.163, 340 238.434 M 310 238 C 305.910 242.090, 308.954 249, 314.845 249 C 318.439 249, 321 246.223, 321 242.326 C 321 236.565, 314.135 233.865, 310 238 M 368.140 241.029 C 366.552 245.583, 366.666 246, 369.500 246 C 372.377 246, 372.506 245.433, 370.640 240.995 L 369.280 237.759 368.140 241.029 M 117 247.500 L 117 252 121.429 252 C 125.920 252, 129 250.163, 129 247.485 C 129 245.265, 124.847 243, 120.777 243 L 117 243 117 247.500 M 255 247 C 255 249.291, 255.454 250, 256.918 250 C 260.110 250, 262 248.884, 262 247 C 262 245.116, 260.110 244, 256.918 244 C 255.454 244, 255 244.709, 255 247" stroke="none" fill="#0a0b0d" fill-rule="evenodd"/><path d="M 0 242.502 L 0 485.004 242.250 484.752 L 484.500 484.500 484.752 242.250 L 485.004 0 242.502 0 L 0 0 0 242.502 M 0.492 243 C 0.492 376.375, 0.608 430.938, 0.750 364.250 C 0.892 297.563, 0.892 188.438, 0.750 121.750 C 0.608 55.063, 0.492 109.625, 0.492 243 M 66 242.500 L 66 290 238.500 290 L 411 290 411 242.500 L 411 195 238.500 195 L 66 195 66 242.500 M 68 242.500 L 68 287 238 287 L 408 287 408 242.500 L 408 198 238 198 L 68 198 68 242.500 M 75 242.500 L 75 281 156.500 281 L 238 281 238 242.500 L 238 204 156.500 204 L 75 204 75 242.500 M 113 242 L 113 255 120.500 255 C 126.667 255, 128.356 254.644, 130 253 C 132.340 250.660, 132.692 244.819, 130.597 243.081 C 129.394 242.082, 129.397 241.512, 130.615 239.070 C 132.299 235.694, 131.192 231.708, 128.114 230.061 C 127.023 229.477, 123.177 229, 119.566 229 L 113 229 113 242 M 140.006 236.750 C 140.015 250.473, 142.566 255, 150.288 255 C 158.426 255, 161 250.803, 161 237.532 C 161 229.719, 160.834 229, 159.036 229 C 157.240 229, 157.048 229.823, 156.786 238.645 C 156.516 247.741, 156.350 248.402, 153.870 250.251 C 152.154 251.530, 150.506 251.978, 149.126 251.540 C 144.689 250.132, 144 248.370, 144 238.429 C 144 229.667, 143.859 229, 142 229 C 140.172 229, 140 229.665, 140.006 236.750 M 170 242 C 170 254.333, 170.103 255, 172 255 C 173.897 255, 174 254.333, 174 242 C 174 229.667, 173.897 229, 172 229 C 170.103 229, 170 229.667, 170 242 M 182 230.500 C 182 231.583, 183.111 232, 186 232 L 190 232 190 243.500 C 190 254.333, 190.116 255, 192 255 C 193.884 255, 194 254.333, 194 243.500 L 194 232 198.500 232 C 201.833 232, 203 231.611, 203 230.500 C 203 229.262, 201.167 229, 192.500 229 C 183.833 229, 182 229.262, 182 230.500 M 248 242 L 248 255 255.550 255 C 260.225 255, 264.178 254.442, 265.932 253.535 C 269.715 251.579, 270.719 247.477, 268.247 244.079 C 266.532 241.721, 266.501 241.272, 267.889 238.843 C 269.117 236.691, 269.180 235.689, 268.215 233.573 C 266.648 230.133, 263.356 229, 254.935 229 L 248 229 248 242 M 274 242 L 274 255 277.500 255 L 281 255 281 250 L 281 245 285 245 L 289 245 289 250 L 289 255 292.500 255 L 296 255 296 242 L 296 229 292.500 229 C 289.019 229, 289 229.024, 289 233.500 L 289 238 285 238 L 281 238 281 233.500 C 281 229.024, 280.981 229, 277.500 229 L 274 229 274 242 M 308.270 230.428 C 298.049 235.044, 298.913 251.182, 309.580 254.899 C 321.244 258.965, 332.547 247.810, 327.353 237.358 C 326.334 235.307, 324.314 232.763, 322.864 231.705 C 319.412 229.184, 312.386 228.569, 308.270 230.428 M 333 241.894 L 333 255 336.437 255 C 339.583 255, 339.900 254.725, 340.187 251.750 C 340.485 248.660, 340.740 248.472, 345.388 247.939 C 351.515 247.235, 354 244.530, 354 238.564 C 354 231.858, 350.864 229.599, 340.924 229.148 L 333 228.788 333 241.894 M 365.646 229.764 C 365.019 230.778, 356 253.999, 356 254.599 C 356 254.819, 357.748 255, 359.883 255 C 362.926 255, 363.880 254.567, 364.290 253 C 364.716 251.372, 365.654 251, 369.339 251 C 372.987 251, 373.988 251.388, 374.500 253 C 374.991 254.548, 376.013 255, 379.023 255 L 382.910 255 380.343 248.250 C 378.930 244.537, 376.750 238.800, 375.498 235.500 C 373.363 229.871, 373.005 229.481, 369.704 229.195 C 367.769 229.028, 365.943 229.284, 365.646 229.764 M 386 242 L 386 255 395 255 L 404 255 404 251.500 L 404 248 398.500 248 L 393 248 393 238.500 L 393 229 389.500 229 L 386 229 386 242 M 117 236 L 117 240 121.300 240 C 125.890 240, 128 238.688, 128 235.835 C 128 233.535, 125.024 232, 120.566 232 C 117.072 232, 117 232.081, 117 236 M 255 236.500 C 255 238.600, 255.471 239, 257.941 239 C 259.559 239, 261.172 238.530, 261.527 237.956 C 262.515 236.358, 260.041 234, 257.378 234 C 255.508 234, 255 234.534, 255 236.500 M 340 238.434 C 340 241.738, 340.223 242, 343.031 242 C 348.495 242, 348.150 235.841, 342.649 235.184 C 340.220 234.893, 340 235.163, 340 238.434 M 310 238 C 305.910 242.090, 308.954 249, 314.845 249 C 318.439 249, 321 246.223, 321 242.326 C 321 236.565, 314.135 233.865, 310 238 M 368.140 241.029 C 366.552 245.583, 366.666 246, 369.500 246 C 372.377 246, 372.506 245.433, 370.640 240.995 L 369.280 237.759 368.140 241.029 M 117 247.500 L 117 252 121.429 252 C 125.920 252, 129 250.163, 129 247.485 C 129 245.265, 124.847 243, 120.777 243 L 117 243 117 247.500 M 255 247 C 255 249.291, 255.454 250, 256.918 250 C 260.110 250, 262 248.884, 262 247 C 262 245.116, 260.110 244, 256.918 244 C 255.454 244, 255 244.709, 255 247" stroke="none" fill="#fbfbfb" fill-rule="evenodd"/></svg>