<svg xmlns="http://www.w3.org/2000/svg" xmlns:xlink="http://www.w3.org/1999/xlink" viewBox="0 0 93.75 33"><defs><style>.cls-1{fill:none;}.cls-2{clip-path:url(#clip-path);}.cls-3{fill:#fff;}.cls-4{fill:#eb5b48;}</style><clipPath id="clip-path" transform="translate(0 0)"><rect class="cls-1" width="57" height="33"/></clipPath></defs><g id="Layer_2" data-name="Layer 2"><g id="Layer_1-2" data-name="Layer 1"><g class="cls-2"><path class="cls-3" d="M24.09,31.33c0-1.73,0-1.7-1.71-1.89A38.26,38.26,0,0,1,7.07,24.72a18.08,18.08,0,0,1-4.52-3.65c-3.48-4-3.4-8.74.21-12.59a20.23,20.23,0,0,1,5.4-4c.21-.11.49-.48.72-.12a.73.73,0,0,1-.17.94,6.22,6.22,0,0,1-1,.58A12.51,12.51,0,0,0,3.42,9.69a5.73,5.73,0,0,0,.06,6.84,12.66,12.66,0,0,0,4.68,4A39.65,39.65,0,0,0,23.35,24.7c.6.06.78-.14.74-.72s0-1.31,0-2,.14-.71.64-.37q3.8,2.61,7.61,5.19c.44.3.45.51,0,.81q-3.76,2.57-7.52,5.15c-.6.41-.76.19-.73-.43,0-.35,0-.69,0-1Z" transform="translate(0 0)"/><path class="cls-3" d="M31.76,29.39c.85-.58,1.68-1.18,2.54-1.74.45-.3.46-.51,0-.81a14.28,14.28,0,0,1-2.48-2c1.19-.12,2.38-.21,3.56-.36a38.86,38.86,0,0,0,12.67-3.57,14.29,14.29,0,0,0,5.22-4.05,5.76,5.76,0,0,0,1.17-5.37c-.25-.81.67-1,.69-1.7a7.94,7.94,0,0,1,1.22,8.28A14.75,14.75,0,0,1,50,24.68a36.52,36.52,0,0,1-13.91,4.57A12,12,0,0,1,31.76,29.39Z" transform="translate(0 0)"/><path class="cls-3" d="M47.23,11.15a19,19,0,0,1-.38,4.58,4.45,4.45,0,0,1-4.71,3.61c-2.54,0-4.21-1.12-4.73-3.53a21.71,21.71,0,0,1,0-9.22,4.45,4.45,0,0,1,4.86-3.67,4.47,4.47,0,0,1,4.63,3.84,19.57,19.57,0,0,1,.34,4.39Zm-6.91,0a24.74,24.74,0,0,0,.28,4.12c.19.81.53,1.5,1.51,1.52.8,0,1.38-.52,1.53-1.6a29.8,29.8,0,0,0,0-8.06c-.11-.83-.49-1.52-1.46-1.56S40.81,6.18,40.62,7a23.74,23.74,0,0,0-.3,4.12Z" transform="translate(0 0)"/><path class="cls-3" d="M26.05,10.08a3.72,3.72,0,0,1,6.38,2,8.25,8.25,0,0,1-.26,4.35c-.75,2-2.54,3-5.07,2.85A4.07,4.07,0,0,1,23,15.92a13.8,13.8,0,0,1-.28-2.13,20.46,20.46,0,0,1,.45-6.53,5.16,5.16,0,0,1,5.36-4.2A13.4,13.4,0,0,1,31,3.23c.53.1.67.34.63.82s.17,1.42-.14,1.81-1.08-.06-1.65-.12C27,5.43,25.63,7,26.05,10.09Zm3.27,4a4.61,4.61,0,0,0-.25-1.71,1.49,1.49,0,0,0-2.8-.11,5.24,5.24,0,0,0,0,3.68,1.5,1.5,0,0,0,2.8-.07A4.8,4.8,0,0,0,29.32,14.11Z" transform="translate(0 0)"/><path class="cls-3" d="M15.66,10.54c2.32,1.55,3,3.12,2.38,5.4-.55,2-2.25,3.16-4.84,3.32a13.53,13.53,0,0,1-2.62-.18c-.6-.08-.83-.34-.83-1,0-1.73,0-1.73,1.75-1.52a8.41,8.41,0,0,0,1.12.06c1.53-.05,2.23-.74,2.23-2.18s-.68-2.15-2.2-2.2c-2-.08-1.94-.08-1.86-2,0-.48.13-.68.64-.66a7.63,7.63,0,0,0,1.5-.11,1.65,1.65,0,0,0,1.59-1.76c.07-1.41-.5-2-1.93-2a6.68,6.68,0,0,0-1.95.23c-.65.18-.72-.08-.73-.63,0-2,.06-2.13,2.08-2.22a9,9,0,0,1,3.35.32,3.4,3.4,0,0,1,2.5,3,3.63,3.63,0,0,1-1.78,3.93l-.4.24Z" transform="translate(0 0)"/><path class="cls-3" d="M42.11,1.86a10.26,10.26,0,0,1-4,.23A54.42,54.42,0,0,0,17,2.42c-1,.2-1,.2-2.85-.42a51.72,51.72,0,0,1,28-.14Z" transform="translate(0 0)"/><path class="cls-4" d="M54.59,6.94a7,7,0,0,1-.24,2.32,2.15,2.15,0,0,1-2.3,1.54A2,2,0,0,1,49.9,9.2a9.46,9.46,0,0,1,0-4.64,2.34,2.34,0,0,1,4.44,0A7.55,7.55,0,0,1,54.59,6.94ZM53,6.92a7.78,7.78,0,0,0-.16-2c-.11-.4-.33-.69-.78-.66a.72.72,0,0,0-.67.67,12.88,12.88,0,0,0,0,3.92c.06.4.26.73.7.75s.69-.35.79-.78A9.65,9.65,0,0,0,53,6.92Z" transform="translate(0 0)"/><path class="cls-3" d="M46.26,3.43a6.23,6.23,0,0,1,2.45,1c.36.19.16.57,0,.84-.16.42-.39,0-.58,0C47.26,5,46.86,4.2,46.26,3.43Z" transform="translate(0 0)"/></g><path class="cls-4" d="M62.25,11.63l2.46,7.73h.09l2.47-7.73h2.38L66.14,21.81H63.37L59.86,11.63Zm8.59,10.18V14.17H73v7.64Zm1.06-8.62a1.17,1.17,0,0,1-.81-.32,1,1,0,0,1,0-1.51A1.17,1.17,0,0,1,71.9,11a1.13,1.13,0,0,1,.81.32,1,1,0,0,1,0,1.51A1.13,1.13,0,0,1,71.9,13.19ZM78.13,22a4,4,0,0,1-2-.48,3.3,3.3,0,0,1-1.31-1.36,4.58,4.58,0,0,1-.45-2.1A4.5,4.5,0,0,1,74.8,16a3.4,3.4,0,0,1,1.29-1.39,3.78,3.78,0,0,1,2-.5,3.88,3.88,0,0,1,1.41.25A2.91,2.91,0,0,1,80.6,15a3.31,3.31,0,0,1,.77,1.21,4.85,4.85,0,0,1,.27,1.7v.58H75.19V17.22h4.46a1.62,1.62,0,0,0-.2-.81,1.45,1.45,0,0,0-.55-.55,1.58,1.58,0,0,0-.81-.21,1.62,1.62,0,0,0-.86.23,1.5,1.5,0,0,0-.58.59,1.61,1.61,0,0,0-.21.82v1.25a2.17,2.17,0,0,0,.21,1,1.52,1.52,0,0,0,.6.63,1.79,1.79,0,0,0,.92.23,2.27,2.27,0,0,0,.65-.1,1.48,1.48,0,0,0,.5-.3,1.39,1.39,0,0,0,.32-.49l2,.13A2.56,2.56,0,0,1,81,20.85a3.09,3.09,0,0,1-1.18.82A4.53,4.53,0,0,1,78.13,22Zm6.34-.15L82.4,14.17h2.14l1.18,5.13h.07L87,14.17h2.11l1.25,5.1h.06l1.17-5.1h2.14l-2.08,7.64H89.43L88.12,17H88l-1.31,4.81Z" transform="translate(0 0)"/></g></g></svg>