<svg width="40" height="40" viewBox="0 0 40 40" fill="none" xmlns="http://www.w3.org/2000/svg">
<g clip-path="url(#clip0_252_1992)">
<path d="M16.2929 19.2827L25.4147 10.1792C25.7121 9.8725 26.0675 9.62797 26.4604 9.45987C26.8532 9.29177 27.2756 9.20344 27.703 9.20005C28.1303 9.19666 28.554 9.27826 28.9495 9.44011C29.345 9.60196 29.7043 9.84081 30.0064 10.1428C30.3086 10.4447 30.5477 10.8037 30.7096 11.1989C30.8716 11.5941 30.9533 12.0175 30.9499 12.4445C30.9465 12.8715 30.8581 13.2936 30.6899 13.6861C30.5216 14.0787 30.2769 14.4338 29.97 14.7309L20.8595 23.857" stroke="#7F685F" stroke-width="2" stroke-linecap="round" stroke-linejoin="round"/>
<path d="M14.3928 23.0856C12.4877 23.0856 10.9498 24.5607 10.9498 26.3854C10.9498 27.8387 8.0807 28.0463 8.65452 28.5926C9.89398 29.7946 11.5122 30.7998 13.2451 30.7998C15.7699 30.7998 17.8357 28.833 17.8357 26.3854C17.8372 25.9535 17.7494 25.5256 17.5772 25.126C17.4049 24.7264 17.1518 24.363 16.8321 24.0566C16.5123 23.7502 16.1324 23.5067 15.7138 23.3401C15.2953 23.1735 14.8464 23.087 14.3928 23.0856Z" stroke="#7F685F" stroke-width="2" stroke-linecap="round" stroke-linejoin="round"/>
</g>
<rect width="40" height="40" fill="#EF7D00" fill-opacity="0.08"/>
<defs>
<clipPath id="clip0_252_1992">
<rect width="24" height="24" fill="white" transform="translate(8 8)"/>
</clipPath>
</defs>
</svg>
