<svg width="72" height="72" viewBox="0 0 72 72" fill="none" xmlns="http://www.w3.org/2000/svg">
<path fill-rule="evenodd" clip-rule="evenodd" d="M11.0728 18.876C15.2818 14.313 21.6508 12 29.9998 12H32.9998V20.457L30.5878 20.94C26.4778 21.762 23.6188 23.379 22.0888 25.752C21.2905 27.0304 20.8377 28.4941 20.7748 30H29.9998C30.7955 30 31.5585 30.3161 32.1211 30.8787C32.6837 31.4413 32.9998 32.2044 32.9998 33V54H33V60H27H26.9998H12H8.99982H6V57.0328C5.99988 57.0219 5.99982 57.011 5.99982 57V42L6.00882 33.243C5.98182 32.91 5.41182 25.02 11.0728 18.876ZM59.9998 60H45H41.9998H39V57.0328L38.9998 57V42L39.0088 33.243C38.9818 32.91 38.4118 25.02 44.0728 18.876C48.2818 14.313 54.6508 12 62.9998 12H65.9998V20.457L63.5878 20.94C59.4778 21.762 56.6188 23.379 55.0888 25.752C54.2905 27.0304 53.8377 28.4941 53.7748 30H62.9998C63.7955 30 64.5585 30.3161 65.1211 30.8787C65.6838 31.4413 65.9998 32.2044 65.9998 33V54H66V60H60H59.9998Z" fill="#080708" fill-opacity="0.2"/>
</svg>
