<?xml version="1.0" encoding="utf-8"?>
<!-- Generator: Adobe Illustrator 24.3.0, SVG Export Plug-In . SVG Version: 6.00 Build 0)  -->
<svg version="1.1" id="Layer_1" xmlns="http://www.w3.org/2000/svg" xmlns:xlink="http://www.w3.org/1999/xlink" x="0px" y="0px"
	 viewBox="0 0 98 24" style="enable-background:new 0 0 98 24;" xml:space="preserve">
<style type="text/css">
	.st0{clip-path:url(#SVGID_2_);}
	.st1{fill:#FFFFFF;}
	.st2{fill:none;stroke:#FFFFFF;stroke-width:0.7;stroke-miterlimit:10;}
	.st3{fill:none;stroke:#FFFFFF;stroke-width:0.4829;stroke-miterlimit:10;}
</style>
<g id="Layer_2_1_">
	<g id="Layer_1-2">
		<g>
			<defs>
				<rect id="SVGID_1_" y="0" width="98" height="24"/>
			</defs>
			<clipPath id="SVGID_2_">
				<use xlink:href="#SVGID_1_"  style="overflow:visible;"/>
			</clipPath>
			<g class="st0">
				<path class="st1" d="M45.7,16.8h-1.6c-0.8,0.1-1.5-0.4-1.8-1.1c-0.4-0.8-0.2-1.7,0.4-2.3c0.3-0.3,0.3-0.4,0.1-0.7
					c-0.5-0.6-0.4-1.5,0.2-2c0.1-0.1,0.2-0.1,0.2-0.2c0.3-0.2,0.4-0.2,0.1-0.6c-0.7-0.9-0.9-2-0.5-3.1c0.3-0.9,1.1-1.6,2.1-1.7
					c0.7-0.2,1.3-0.2,2,0c0.4,0.2,0.8,0,1-0.4c0-0.1,0-0.1,0-0.2c0.2-0.9,0.7-0.8,1.4-0.8s0.6,0.2,0.5,0.6c-0.1,0.6-0.4,1.2-1,1.5
					c-0.2,0.1-0.2,0.2-0.1,0.4C49.2,7.1,49.3,8.1,49,9c-0.4,1.1-1.4,1.8-2.6,1.8c-0.4,0-0.8,0-1.2,0c-0.3,0-0.6,0-0.6,0.4
					s0.3,0.5,0.6,0.6c0.8,0,1.7,0,2.5,0c2.3-0.2,2.8,2.1,2.1,3.5c-0.4,0.9-1.3,1.5-2.3,1.5C46.9,16.8,46.3,16.8,45.7,16.8L45.7,16.8
					z M44.7,8.1c-0.1,0.6,0.4,1.2,1,1.3c0.1,0,0.1,0,0.2,0c0.7,0,1.3-0.6,1.3-1.3c0-0.1,0-0.1,0-0.2c0.1-0.7-0.4-1.3-1.1-1.4
					c0,0-0.1,0-0.1,0C45.1,6.5,44.7,7.1,44.7,8.1L44.7,8.1z M46,15.3c0.4,0,0.9,0,1.3,0c0.4,0,0.7-0.4,0.7-0.8
					c0-0.4-0.3-0.7-0.7-0.7c0,0,0,0,0,0c-0.8,0-1.7,0-2.5,0c-0.4,0-0.7,0.3-0.7,0.7c0,0,0,0,0,0.1c0,0.4,0.3,0.7,0.6,0.8
					c0,0,0.1,0,0.1,0C45.2,15.3,45.6,15.3,46,15.3z"/>
				<path class="st1" d="M29.3,8.2c0-1.7,0-3.4,0-5.1c0-0.3,0.1-0.5,0.5-0.5c1.1,0,2.1,0,3.2,0c2.3-0.1,4.2,1.6,4.4,3.8
					c0.3,1.6,0.2,3.2-0.4,4.7c-0.5,1.7-2.1,2.8-3.9,2.7c-1.1,0-2.3,0-3.4,0c-0.4,0-0.5-0.1-0.5-0.5C29.3,11.6,29.3,9.9,29.3,8.2
					L29.3,8.2z M31.4,8.2L31.4,8.2c0,0.8,0,1.6,0,2.3c0,0.4-0.1,1,0.1,1.2s0.9,0.1,1.3,0.1c1.2,0,2.2-0.8,2.4-2
					c0.2-1.1,0.3-2.2,0.1-3.2c-0.1-1.1-0.9-2.1-2.1-2.2c-0.5-0.1-0.9,0-1.4,0s-0.4,0.1-0.4,0.4C31.4,6,31.4,7.1,31.4,8.2L31.4,8.2z"
					/>
				<path class="st1" d="M81.2,10.4c-0.6,0.4-0.9,1-0.7,1.7c0,0.1,0,0.2,0,0.3c0,1.6,0,1.7-1.7,1.5c-0.2,0-0.3-0.1-0.3-0.3v-1.9
					c0-3,0-6,0-9C78.5,2.1,78.5,2,79,2c0.3,0,0.7,0,1,0c0.4,0,0.4,0.1,0.4,0.5c0,2,0,3.9,0,6c0.2-0.1,0.3-0.2,0.4-0.4
					c0.6-0.8,1.2-1.7,1.8-2.5c0.1-0.2,0.3-0.3,0.6-0.3c0.6,0,1.1,0,1.8,0c-0.3,0.4-0.5,0.7-0.7,1c-0.5,0.7-1,1.4-1.6,2.1
					c-0.2,0.2-0.2,0.5,0,0.7c0.7,1.4,1.5,2.7,2.2,4.1c0.1,0.2,0.2,0.3,0.2,0.6c-0.6,0-1.3,0-1.9,0c-0.3,0-0.3-0.2-0.4-0.3
					C82.2,12.5,81.7,11.5,81.2,10.4L81.2,10.4z"/>
				<path class="st1" d="M89.8,10c-0.6,0-1.2,0-1.7,0c-0.4,0-0.5,0.1-0.4,0.5c0,0.3,0.1,0.7,0.2,1c0.1,0.6,0.6,1,1.2,0.9
					c0.5-0.1,0.9-0.5,0.9-1.1c0-0.6,0.3-0.6,0.7-0.6c0.2,0,0.5,0,0.7,0c0.7,0,0.7,0,0.6,0.7c-0.1,1.3-1.1,2.4-2.4,2.6
					c-1.4,0.4-2.8-0.3-3.5-1.6c-0.7-1.8-0.8-3.8-0.1-5.6c0.2-0.8,0.9-1.4,1.7-1.6c1.3-0.5,2.8,0,3.6,1.1c0.3,0.5,0.5,1.1,0.5,1.7
					c0.1,0.5,0.1,1.1,0.1,1.6c0,0.3-0.1,0.4-0.4,0.4C91,10,90.4,10,89.8,10L89.8,10z M88.7,8.6H89c1,0,1,0,0.7-1
					c-0.1-0.4-0.2-0.7-0.7-0.8c-0.4-0.1-0.9,0-1.1,0.4c-0.3,0.4-0.4,0.9-0.3,1.4c0.1,0.3,0.5,0.1,0.8,0.1L88.7,8.6z"/>
				<path class="st1" d="M62.6,9.7c0-0.9,0.1-1.8,0.4-2.7c0.5-1.4,2-2.3,3.5-1.9c2.4,0.3,2.9,2.1,3,3.9c0.1,0.9,0,1.9-0.3,2.8
					c-0.4,1.3-1.5,2.2-2.9,2.2c-2.6,0.1-3.5-1.5-3.6-3.3C62.7,10.4,62.6,10,62.6,9.7z M64.7,9.4c0,0.7,0.1,1.4,0.3,2.1
					c0.1,0.5,0.6,0.8,1.1,0.8c0.5,0,1-0.3,1.1-0.8c0.4-1.3,0.4-2.7,0-4c-0.1-0.6-0.7-0.9-1.3-0.8c-0.6,0.1-1,0.6-1.1,1.2
					C64.8,8.4,64.7,8.9,64.7,9.4z"/>
				<path class="st1" d="M72.8,9.3c0,0.7,0,1.4,0.2,2.1c0.2,0.7,0.5,1,1.1,1s0.7-0.3,0.9-1c0.1-0.5,0.5-0.8,1-0.8c0,0,0,0,0,0
					c0.8,0,1.2,0.4,1,1.2c-0.2,1.2-1.2,2.1-2.4,2.2c-1.7,0.1-2.9-0.4-3.4-1.7c-0.5-1.4-0.6-3-0.3-4.4c0.1-0.9,0.5-1.7,1.2-2.3
					c0.7-0.4,1.6-0.6,2.4-0.4c1,0.1,1.8,0.7,2.2,1.7c0.1,0.5,0.2,0.9,0.3,1.4c0,0.2-0.1,0.3-0.3,0.3s-0.4,0-0.6,0
					c-0.4,0.1-0.7,0.1-1.1,0c-0.4-0.1-0.1-0.6-0.2-0.9c-0.2-0.5-0.3-0.8-0.9-0.8s-0.8,0.4-1,1C72.9,8.3,72.8,8.8,72.8,9.3L72.8,9.3z
					"/>
				<path class="st1" d="M54.7,8.2c0-1.7,0-3.4,0-5.1c0-0.3,0.1-0.5,0.4-0.4c0.5,0,1.2-0.2,1.6,0.1s0.1,1,0.1,1.5c0,2.4,0,4.7,0,7.1
					c0,0.4,0.1,0.5,0.5,0.5c1.3,0,2.6,0,3.9,0c0.3,0,0.5,0.1,0.4,0.4s0,0.8,0,1.2s-0.1,0.4-0.3,0.4H55c-0.4,0-0.3-0.2-0.3-0.4
					C54.7,11.6,54.7,9.9,54.7,8.2L54.7,8.2z"/>
				<path class="st1" d="M95.4,6.4c0.1-0.2,0.2-0.4,0.3-0.7c0.4-0.6,1.1-0.9,1.8-0.7c0.1,0,0.2,0.2,0.2,0.3c0,0.2,0,0.3,0,0.5
					c0,0.4,0.1,0.8-0.1,1.1s-0.7,0.1-1,0.2c-0.8,0.2-1.3,0.9-1.2,1.7c0,1.5,0,3,0,4.5c0,0.4-0.1,0.5-0.4,0.5c-0.4,0-0.8,0-1.2,0
					c-0.3,0-0.3-0.1-0.3-0.4c0-2.6,0-5.2,0-7.8c0-0.3,0.1-0.4,0.4-0.3c0.4-0.1,0.8-0.1,1.2,0C95.4,5.4,95.2,6,95.4,6.4L95.4,6.4z"/>
				<path class="st1" d="M38.9,9.5c0-1.3,0-2.5,0-3.8c0-0.4,0.1-0.5,0.5-0.5s1.1-0.2,1.4,0.1s0.1,0.9,0.1,1.4c0,2.2,0,4.4,0,6.6
					c0,0.4-0.1,0.6-0.5,0.5c-0.4,0-0.7,0-1.1,0c-0.3,0-0.4-0.1-0.4-0.4C38.9,12.1,38.9,10.8,38.9,9.5L38.9,9.5z"/>
				<path class="st1" d="M52.8,9.6c0,1.3,0,2.5,0,3.8c0,0.3-0.1,0.4-0.4,0.4s-0.8,0-1.2,0s-0.4-0.1-0.4-0.3c0-2.6,0-5.2,0-7.8
					c0-0.3,0.1-0.4,0.4-0.3c0.5,0,1.2-0.2,1.5,0.1s0.1,0.9,0.1,1.4C52.8,7.7,52.8,8.6,52.8,9.6L52.8,9.6L52.8,9.6z"/>
				<path class="st1" d="M39.9,2c0.5-0.1,0.9,0.2,1,0.7c0,0.1,0,0.2,0,0.3c0,0.6-0.3,0.8-1,0.8S39,3.6,39,3c-0.1-0.5,0.2-0.9,0.7-1
					C39.8,2,39.9,2,39.9,2z"/>
				<path class="st1" d="M51.8,3.8c-0.7,0-1-0.3-1-1c0-0.4,0.2-0.8,0.6-0.8c0.1,0,0.1,0,0.2,0c0.8,0,1.2,0.4,1.2,1.1
					C52.8,3.6,52.5,3.8,51.8,3.8L51.8,3.8z"/>
				<path class="st1" d="M33,23.1v-1.5l-0.9-2h0.7l0.5,1.3l0.5-1.3h0.7l-0.9,2v1.5H33z"/>
				<path class="st1" d="M34.4,21.8c0-0.4,0-0.8,0.2-1.1c0.4-0.4,1-0.4,1.4,0c0,0,0,0,0,0c0.2,0.3,0.2,0.7,0.2,1.1
					c0,0.4,0,0.8-0.2,1.1c-0.4,0.4-1,0.4-1.4,0c0,0,0,0,0,0C34.5,22.5,34.4,22.2,34.4,21.8z M35,21.8L35,21.8c0,0.3,0,0.6,0.1,0.8
					c0.1,0.1,0.3,0.2,0.4,0.1c0,0,0.1-0.1,0.1-0.1c0.1-0.2,0.1-0.4,0.1-0.7v-0.3c0-0.2,0-0.4-0.1-0.7c0-0.1-0.1-0.1-0.2-0.1
					c-0.1,0-0.2,0-0.2,0.1c-0.1,0.2-0.1,0.4-0.1,0.6L35,21.8L35,21.8z"/>
				<path class="st1" d="M38.5,20.5v2.6h-0.6v-0.3c-0.1,0.1-0.1,0.2-0.2,0.2c-0.1,0.1-0.2,0.1-0.3,0.1c-0.2,0-0.3,0-0.4-0.2
					c-0.1-0.1-0.2-0.3-0.2-0.5v-2.1h0.6v1.7c0,0.1,0,0.2,0.1,0.4c0,0.1,0.1,0.1,0.2,0.1c0.1,0,0.2,0,0.2-0.1
					c0.1-0.1,0.1-0.3,0.1-0.4v-1.7H38.5z"/>
				<path class="st1" d="M39,23.1v-2.6h0.6v0.4c0.1-0.1,0.2-0.3,0.3-0.4c0.1-0.1,0.2-0.1,0.3-0.1v0.7H40c-0.1,0-0.2,0-0.3,0.1
					c-0.1,0.1-0.1,0.2-0.1,0.3v1.5H39z"/>
				<path class="st1" d="M42.9,22.8c0,0.1-0.1,0.2-0.2,0.3c-0.3,0.2-0.7,0.1-0.9-0.2c0,0,0,0,0,0c-0.1-0.3-0.2-0.7-0.2-1.1
					c0-0.4,0-0.7,0.2-1.1c0.1-0.2,0.3-0.3,0.5-0.3c0.1,0,0.2,0,0.3,0.1c0.1,0.1,0.2,0.1,0.2,0.2v-1.1h0.6v3.5h-0.6L42.9,22.8z
					 M42.3,21.7c0,0.3,0,0.5,0.1,0.8c0,0.1,0.1,0.2,0.2,0.2c0.1,0,0.2,0,0.2-0.1c0.1-0.2,0.1-0.4,0.1-0.6c0-0.3,0-0.6-0.1-0.9
					c0-0.1-0.1-0.2-0.2-0.2c-0.1,0-0.2,0.1-0.2,0.1C42.3,21.3,42.3,21.5,42.3,21.7z"/>
				<path class="st1" d="M44,21.8c0-0.4,0-0.8,0.2-1.1c0.2-0.2,0.4-0.3,0.7-0.3c0.3,0,0.6,0.1,0.7,0.3c0.2,0.3,0.2,0.7,0.2,1.1
					c0,0.4,0,0.8-0.2,1.1c-0.2,0.2-0.5,0.3-0.7,0.3c-0.3,0-0.5-0.1-0.7-0.3C44,22.5,44,22.2,44,21.8z M44.6,21.8L44.6,21.8
					c0,0.3,0,0.6,0.1,0.8c0,0.1,0.1,0.1,0.2,0.1c0.1,0,0.2,0,0.2-0.1c0.1-0.2,0.1-0.4,0.1-0.7v-0.3c0-0.2,0-0.4-0.1-0.7
					c-0.1-0.1-0.1-0.1-0.2-0.1c-0.1,0-0.2,0-0.2,0.1c-0.1,0.2-0.1,0.4-0.1,0.6C44.6,21.6,44.6,21.8,44.6,21.8z"/>
				<path class="st1" d="M48,22.1v0.1c0,0.3,0,0.5-0.2,0.7c-0.2,0.2-0.4,0.3-0.7,0.2c-0.3,0-0.5-0.1-0.7-0.3
					c-0.2-0.3-0.2-0.7-0.2-1.1c0-0.4,0-0.8,0.2-1.1c0.2-0.2,0.4-0.3,0.7-0.3c0.2,0,0.5,0.1,0.7,0.2c0.2,0.2,0.2,0.4,0.2,0.7v0.1
					h-0.6v-0.1c0-0.1,0-0.2-0.1-0.4c0-0.1-0.1-0.1-0.2-0.1c-0.1,0-0.2,0-0.2,0.1c0,0.1-0.1,0.2-0.1,0.4v0.9c0,0.1,0,0.3,0.1,0.4
					c0.1,0.1,0.2,0.1,0.3,0.1c0,0,0.1,0,0.1-0.1c0-0.2,0.1-0.3,0.1-0.5v0L48,22.1z"/>
				<path class="st1" d="M50.2,20.5v2.6h-0.6v-0.3c-0.1,0.1-0.1,0.2-0.2,0.2c-0.1,0.1-0.2,0.1-0.3,0.1c-0.2,0-0.3,0-0.4-0.2
					c-0.1-0.1-0.2-0.3-0.2-0.5v-2.1H49v1.7c0,0.1,0,0.2,0.1,0.4c0,0.1,0.1,0.1,0.2,0.1c0.1,0,0.2,0,0.2-0.1c0-0.1,0.1-0.3,0.1-0.4
					v-1.7H50.2z"/>
				<path class="st1" d="M50.7,23.1v-2.6h0.6v0.3c0.1-0.1,0.1-0.2,0.2-0.3c0.1-0.1,0.3-0.1,0.4-0.1c0.1,0,0.2,0,0.3,0.1
					c0.1,0.1,0.2,0.1,0.2,0.2c0.1-0.1,0.2-0.2,0.3-0.3c0.1-0.1,0.2-0.1,0.3-0.1c0.2,0,0.3,0.1,0.5,0.2c0.1,0.1,0.2,0.3,0.2,0.5v2
					h-0.6v-1.7c0-0.1,0-0.3-0.1-0.4c-0.1-0.1-0.1-0.1-0.2-0.1c-0.1,0-0.2,0-0.2,0.1c-0.1,0.1-0.1,0.2-0.1,0.4v1.7h-0.6v-1.7
					c0-0.1,0-0.3-0.1-0.4c-0.1-0.1-0.1-0.1-0.2-0.1c-0.1,0-0.2,0-0.2,0.1c-0.1,0.1-0.1,0.2-0.1,0.4v1.7H50.7z"/>
				<path class="st1" d="M55.4,22.2H56v0.1c0,0.2-0.1,0.5-0.2,0.7c-0.2,0.2-0.4,0.2-0.7,0.2c-0.1,0-0.3,0-0.4-0.1
					c-0.1,0-0.2-0.1-0.3-0.2c-0.1-0.1-0.2-0.2-0.2-0.4c0-0.3-0.1-0.6,0-0.8c0-0.2,0-0.5,0-0.7c0-0.1,0.1-0.2,0.2-0.3
					c0.1-0.1,0.2-0.2,0.3-0.2c0.1,0,0.3-0.1,0.4-0.1c0.1,0,0.3,0,0.4,0.1c0.1,0,0.2,0.1,0.3,0.2c0.1,0.1,0.2,0.2,0.2,0.3
					c0,0.2,0,0.4,0,0.6v0.2h-1.2V22c0,0.2,0,0.4,0.1,0.5c0,0.1,0.1,0.2,0.2,0.1c0.1,0,0.2,0,0.2-0.1C55.4,22.4,55.4,22.3,55.4,22.2
					L55.4,22.2z M54.8,21.5h0.6v-0.1c0-0.1,0-0.2-0.1-0.3c-0.1-0.1-0.3-0.1-0.4,0c0,0,0,0,0,0C54.8,21.1,54.8,21.3,54.8,21.5
					L54.8,21.5L54.8,21.5z"/>
				<path class="st1" d="M56.5,23.1v-2.6h0.6v0.3c0.1-0.1,0.1-0.2,0.2-0.2c0.1-0.1,0.2-0.1,0.3-0.1c0.2,0,0.3,0,0.4,0.2
					c0.1,0.1,0.2,0.3,0.2,0.5v2.1h-0.6v-1.8c0-0.1,0-0.2-0.1-0.3c0-0.1-0.1-0.1-0.2-0.1c-0.1,0-0.2,0-0.2,0.1
					c-0.1,0.1-0.1,0.3-0.1,0.4v1.7H56.5z"/>
				<path class="st1" d="M59.4,22.1v0.2c0,0.1,0,0.2,0,0.3c0,0,0.1,0,0.2,0h0.1v0.5h-0.2h-0.1c-0.2,0-0.3,0-0.4-0.1
					c-0.1-0.2-0.1-0.3-0.1-0.5v-1.6h-0.2v-0.5h0.2v-0.7h0.6v0.7h0.2v0.5h-0.2C59.4,20.9,59.4,22.1,59.4,22.1z"/>
				<path class="st1" d="M59.9,22.2h0.6v0.1c0,0.1,0,0.2,0.1,0.3c0.1,0.1,0.1,0.1,0.2,0.1c0.1,0,0.1,0,0.2-0.1
					c0.1-0.1,0.1-0.1,0.1-0.2c0-0.1-0.1-0.2-0.3-0.3L60.6,22l0,0c-0.5-0.3-0.7-0.6-0.7-0.9c0-0.2,0.1-0.4,0.2-0.5
					c0.2-0.1,0.4-0.2,0.6-0.2c0.2,0,0.4,0.1,0.6,0.2c0.1,0.2,0.2,0.4,0.2,0.6v0.1h-0.5v0c0-0.1,0-0.2-0.1-0.3
					c-0.1-0.1-0.2-0.1-0.2-0.1c-0.1,0-0.1,0-0.2,0.1c0,0-0.1,0.1-0.1,0.2c0,0.1,0,0.1,0.1,0.2c0.1,0.1,0.2,0.2,0.3,0.2l0.1,0.1
					c0.5,0.3,0.7,0.6,0.7,0.9c0,0.2-0.1,0.4-0.2,0.5c-0.2,0.1-0.4,0.2-0.7,0.2c-0.4,0.1-0.8-0.2-0.8-0.6
					C59.9,22.5,59.9,22.4,59.9,22.2L59.9,22.2L59.9,22.2z"/>
				<path class="st1" d="M64.5,23.1C64.5,23.1,64.5,23,64.5,23.1c0-0.1,0-0.2,0-0.3c-0.1,0.1-0.1,0.2-0.2,0.2
					c-0.1,0.1-0.2,0.1-0.3,0.1c-0.2,0-0.4-0.1-0.5-0.2c-0.1-0.2-0.2-0.4-0.2-0.6c0-0.2,0-0.4,0.2-0.5c0.2-0.2,0.4-0.3,0.6-0.4
					l0.1-0.1c0.2-0.1,0.4-0.2,0.4-0.4c0-0.1,0-0.1-0.1-0.2c-0.1,0-0.1-0.1-0.2-0.1c-0.1,0-0.2,0-0.2,0.1c-0.1,0.1-0.1,0.2-0.1,0.3v0
					h-0.6c0-0.2,0.1-0.5,0.2-0.6c0.2-0.2,0.4-0.2,0.7-0.2c0.2,0,0.5,0,0.7,0.2c0.1,0.2,0.2,0.4,0.2,0.6v1.5c0,0.1,0,0.1,0,0.2
					c0,0.1,0,0.1,0.1,0.2H64.5z M64.4,21.7c-0.2,0.1-0.3,0.2-0.4,0.3c-0.1,0.2-0.2,0.4-0.1,0.6c0.1,0.1,0.1,0.1,0.2,0.1
					c0.1,0,0.2-0.1,0.2-0.1c0.1-0.1,0.1-0.3,0.1-0.4L64.4,21.7L64.4,21.7z"/>
				<path class="st1" d="M65.5,23.1v-2.6h0.6v0.3c0.1-0.1,0.1-0.2,0.2-0.2c0.2-0.1,0.5-0.1,0.8,0.1c0.1,0.1,0.2,0.3,0.2,0.5v2.1
					h-0.6v-1.8c0-0.1,0-0.2-0.1-0.3c0-0.1-0.1-0.1-0.2-0.1c-0.1,0-0.2,0-0.2,0.1c0,0.1-0.1,0.3-0.1,0.4v1.7H65.5z"/>
				<path class="st1" d="M67.9,24v-0.5H68c0.1,0,0.1,0,0.2,0c0,0,0.1-0.1,0.1-0.1c0,0,0,0,0-0.1c0,0,0-0.1,0-0.1l-0.7-2.7h0.7
					l0.4,1.9l0.3-1.9h0.6l-0.7,2.9c0,0.2-0.1,0.4-0.2,0.5c-0.1,0.1-0.3,0.1-0.5,0.1L67.9,24L67.9,24z"/>
				<path class="st1" d="M70.5,22.1v0.2c0,0.1,0,0.2,0,0.3c0,0,0.1,0,0.2,0h0.1v0.5h-0.2h-0.1c-0.1,0-0.3,0-0.4-0.1
					c-0.1-0.2-0.1-0.3-0.1-0.5v-1.6h-0.2v-0.5h0.2v-0.7h0.6v0.7h0.2v0.5h-0.2L70.5,22.1L70.5,22.1z"/>
				<path class="st1" d="M71.2,20.1v-0.5h0.6v0.5H71.2z M71.2,23.1v-2.7h0.6v2.6L71.2,23.1z"/>
				<path class="st1" d="M72.3,23.1v-2.6h0.6v0.3c0.1-0.1,0.1-0.2,0.2-0.3c0.1-0.1,0.3-0.1,0.4-0.1c0.1,0,0.2,0,0.3,0.1
					c0.1,0.1,0.2,0.1,0.2,0.2c0.1-0.1,0.2-0.2,0.3-0.3c0.1-0.1,0.2-0.1,0.3-0.1c0.2,0,0.4,0.1,0.5,0.2c0.1,0.1,0.2,0.3,0.2,0.5v2
					h-0.6v-1.7c0-0.1,0-0.3-0.1-0.4c-0.1-0.1-0.1-0.1-0.2-0.1c-0.1,0-0.2,0-0.2,0.1c-0.1,0.1-0.1,0.2-0.1,0.4v1.7h-0.6v-1.7
					c0-0.1,0-0.3-0.1-0.4c-0.1-0.1-0.1-0.1-0.2-0.1c-0.1,0-0.2,0-0.2,0.1c-0.1,0.1-0.1,0.2-0.1,0.4v1.8H72.3z"/>
				<path class="st1" d="M77,22.2h0.6v0.1c0,0.2-0.1,0.5-0.2,0.7c-0.2,0.2-0.4,0.2-0.7,0.2c-0.1,0-0.3,0-0.4-0.1
					c-0.1,0-0.2-0.1-0.3-0.2c-0.1-0.1-0.2-0.2-0.2-0.4c0-0.3,0-0.6,0-0.8c0-0.2,0-0.5,0-0.7c0-0.1,0.1-0.2,0.2-0.3
					c0.1-0.1,0.2-0.2,0.3-0.2c0.1,0,0.3-0.1,0.4-0.1c0.1,0,0.3,0,0.4,0.1c0.1,0,0.2,0.1,0.3,0.2c0.1,0.1,0.1,0.2,0.1,0.3
					c0,0.2,0,0.4,0,0.6v0.2h-1.2v0.1c0,0,0,0.1,0,0.1c0,0.2,0,0.4,0.1,0.5c0,0.1,0.1,0.2,0.2,0.1c0.1,0,0.2,0,0.2-0.1
					C77,22.5,77,22.3,77,22.2z M76.4,21.5H77v-0.1c0-0.1,0-0.2-0.1-0.3c-0.1-0.1-0.1-0.1-0.2-0.1c-0.1,0-0.2,0-0.2,0.1
					C76.4,21.1,76.4,21.3,76.4,21.5L76.4,21.5L76.4,21.5z"/>
				<path class="st1" d="M78.1,23.8v-0.2c0.1,0,0.2-0.1,0.2-0.1c0.1-0.1,0.1-0.2,0.1-0.3l0,0h-0.3v-0.6h0.6v0.6
					c0,0.2-0.1,0.3-0.2,0.5C78.4,23.8,78.2,23.8,78.1,23.8L78.1,23.8z"/>
				<path class="st1" d="M81.7,23.1C81.6,23.1,81.6,23,81.7,23.1c0-0.1,0-0.2,0-0.3c-0.1,0.1-0.1,0.2-0.2,0.2
					c-0.1,0.1-0.2,0.1-0.4,0.1c-0.2,0-0.4-0.1-0.5-0.2c-0.1-0.2-0.2-0.4-0.2-0.6c0-0.2,0-0.4,0.2-0.5c0.2-0.2,0.4-0.3,0.6-0.4
					l0.1-0.1c0.2-0.1,0.4-0.2,0.4-0.4c0-0.1,0-0.1-0.1-0.2c-0.1,0-0.1-0.1-0.2-0.1c-0.1,0-0.2,0-0.2,0.1C81,21,81,21.1,81,21.2v0
					h-0.6c0-0.2,0.1-0.5,0.2-0.6c0.2-0.1,0.5-0.2,0.7-0.2c0.2,0,0.5,0,0.7,0.2c0.2,0.2,0.2,0.4,0.2,0.6v1.5c0,0.1,0,0.1,0,0.2
					c0,0.1,0,0.1,0.1,0.2H81.7z M81.6,21.7c-0.2,0.1-0.3,0.2-0.5,0.3C81,22.1,81,22.2,81,22.4c0,0.1,0,0.2,0.1,0.3
					c0.1,0.1,0.1,0.1,0.2,0.1c0.1,0,0.2-0.1,0.2-0.1c0.1-0.1,0.1-0.3,0.1-0.4C81.6,22.1,81.6,21.7,81.6,21.7z"/>
				<path class="st1" d="M82.7,23.1v-2.6h0.6v0.3c0.1-0.1,0.1-0.2,0.2-0.2c0.2-0.1,0.5-0.1,0.8,0.1c0.1,0.1,0.2,0.3,0.2,0.5v2.1
					h-0.6v-1.8c0-0.1,0-0.2,0-0.3c0-0.1-0.1-0.1-0.2-0.1c-0.1,0-0.2,0-0.2,0.1c-0.1,0.1-0.1,0.3-0.1,0.4v1.7H82.7L82.7,23.1z"/>
				<path class="st1" d="M85.1,24v-0.5h0.1c0.1,0,0.1,0,0.2,0c0,0,0.1-0.1,0.1-0.1v-0.1c0,0,0,0,0-0.1l-0.7-2.7h0.7l0.4,1.9l0.4-1.9
					h0.6L86,23.4c0,0.2-0.1,0.4-0.2,0.5C85.6,24,85.4,24,85.3,24L85.1,24L85.1,24z"/>
				<path class="st1" d="M87.4,23.1l-0.6-2.6h0.6l0.3,2l0.3-2h0.5l0.4,2l0.2-2h0.6l-0.5,2.6h-0.7l-0.3-1.6l-0.2,1.6H87.4z"/>
				<path class="st1" d="M90.1,23.1v-3.5h0.6v1.1c0-0.1,0.1-0.2,0.2-0.2c0.2-0.1,0.6-0.1,0.8,0.1c0.1,0.1,0.2,0.3,0.2,0.5v2.1h-0.6
					v-1.8c0-0.1,0-0.2-0.1-0.3c0-0.1-0.1-0.1-0.2-0.1c-0.1,0-0.2,0-0.2,0.1c-0.1,0.1-0.1,0.3-0.1,0.4v1.7H90.1z"/>
				<path class="st1" d="M93.6,22.2h0.6v0.1c0,0.2-0.1,0.5-0.2,0.7c-0.2,0.2-0.4,0.2-0.7,0.2c-0.1,0-0.3,0-0.4-0.1
					c-0.1,0-0.2-0.1-0.3-0.2c-0.1-0.1-0.1-0.2-0.2-0.4c0-0.3,0-0.6,0-0.8c0-0.2,0-0.5,0-0.7c0-0.1,0.1-0.2,0.2-0.3
					c0.1-0.1,0.2-0.2,0.3-0.2c0.1,0,0.3-0.1,0.4-0.1c0.1,0,0.3,0,0.4,0.1c0.1,0,0.2,0.1,0.3,0.2c0.1,0.1,0.1,0.2,0.1,0.3
					c0,0.2,0,0.4,0,0.6v0.2h-1.2V22c0,0.2,0,0.4,0.1,0.5c0,0.1,0.1,0.2,0.2,0.1c0.1,0,0.2,0,0.2-0.1C93.5,22.4,93.6,22.3,93.6,22.2
					L93.6,22.2z M92.9,21.5h0.6v-0.1c0-0.1,0-0.3-0.1-0.4c-0.1-0.1-0.3-0.1-0.4,0c0,0,0,0,0,0C92.9,21.1,92.9,21.3,92.9,21.5
					L92.9,21.5L92.9,21.5z"/>
				<path class="st1" d="M94.6,23.1v-2.6h0.6v0.4c0.1-0.1,0.2-0.3,0.3-0.4c0.1-0.1,0.2-0.1,0.3-0.1v0.7h-0.2c-0.1,0-0.2,0-0.3,0.1
					c-0.1,0.1-0.1,0.2-0.1,0.3v1.5H94.6z"/>
				<path class="st1" d="M97.4,22.2H98v0.1c0,0.2-0.1,0.5-0.2,0.7c-0.2,0.2-0.4,0.2-0.7,0.2c-0.1,0-0.3,0-0.4-0.1
					c-0.1,0-0.2-0.1-0.3-0.2c-0.1-0.1-0.1-0.2-0.2-0.4c0-0.3-0.1-0.6-0.1-0.8c0-0.2,0-0.5,0.1-0.7c0-0.3,0.2-0.5,0.4-0.5
					c0.1,0,0.3-0.1,0.4-0.1c0.1,0,0.3,0,0.4,0.1c0.1,0,0.2,0.1,0.3,0.2c0.1,0.1,0.1,0.2,0.1,0.3c0,0.2,0,0.4,0,0.6v0.2h-1.2V22
					c0,0.2,0,0.4,0.1,0.5c0,0.1,0.1,0.2,0.2,0.1c0.1,0,0.2,0,0.2-0.1C97.4,22.4,97.4,22.3,97.4,22.2L97.4,22.2z M96.8,21.5h0.6v-0.1
					c0-0.1,0-0.3-0.1-0.4c-0.1-0.1-0.3-0.1-0.4,0c0,0,0,0,0,0c-0.1,0.1-0.1,0.2-0.1,0.4L96.8,21.5L96.8,21.5z"/>
				<path class="st2" d="M64.9,17.9H98"/>
			</g>
		</g>
		<path class="st1" d="M25.2,7.7h-9.1c-0.2,0-0.4,0-0.4-0.3V0.2c0,0,0,0,0.1-0.1L25.2,7.7L25.2,7.7z"/>
		<path class="st1" d="M24.8,8.7c-3.2,0-6.5,0-9.7,0c-0.5,0-0.6-0.1-0.6-0.6c0-2.5,0-5.1,0-7.6c0-0.2,0.1-0.5-0.3-0.5
			c-2.5,0-5.1,0-7.6,0C5.8-0.1,5.1,0.5,5,1.3c0,0.1,0,0.3,0,0.4c0,2,0,4.1,0,6.1L5,9c2.3-1,5-0.4,6.3,1.5c0.2,0.3,0.3,0.2,0.7,0.2
			c2.3-0.4,4.1,0.4,4.8,2.4c0.1,0.3,0.4,0.7,0.7,0.9c1.8,1,2.4,3.4,1.5,5.2c-0.1,0.1-0.1,0.2-0.2,0.3c-0.7,1.1-1.9,1.7-3.2,1.6
			c-2.1,0-4.3,0-6.4,0H5l0,0c0,0.5,0,0.9,0,1.4c0,0.6,0.3,1.1,0.9,1.3c0.3,0.1,0.7,0.2,1,0.1h16.4c0.2,0,0.4,0,0.6,0
			c0.8,0,1.4-0.6,1.4-1.4c0-0.1,0-0.1,0-0.2c0-4.4,0-8.9,0-13.3C25.3,8.8,25.2,8.7,24.8,8.7z"/>
		<path class="st3" d="M9.6,20.5c-1.9,0-3.8,0-5.6,0c-1.3,0.1-2.5-0.7-3.1-1.8c-0.8-1.5-0.2-3.4,1.2-4.2c0.3-0.2,0.5-0.5,0.5-0.9
			c0.1-2,1.4-3.7,3.3-4.2c1.9-0.5,4,0.2,5.1,1.8c0.1,0.2,0.4,0.4,0.6,0.3c0,0,0,0,0.1,0c1.9-0.7,4,0.3,4.7,2.2
			c0.1,0.3,0.3,0.5,0.5,0.7c1.6,0.9,2.3,3,1.4,4.7c0,0.1-0.1,0.1-0.1,0.2c-0.7,0.9-1.8,1.4-3,1.3C13.3,20.4,11.4,20.4,9.6,20.5
			L9.6,20.5z M8.4,17.5c1,0,0.8,0.1,0.6-0.8c0-0.1,0-0.2-0.1-0.3c-0.2-0.4-0.1-0.9,0.2-1.1C9.5,15,9.4,14.5,9,14.2
			c-0.4-0.3-0.6-0.4-1.1,0c-0.3,0.2-0.4,0.7-0.2,1c0,0,0,0.1,0.1,0.1c0.3,0.2,0.4,0.6,0.2,0.9c-0.1,0.2-0.1,0.4-0.1,0.6
			C7.7,17.3,7.9,17.5,8.4,17.5L8.4,17.5z"/>
	</g>
</g>
</svg>
