<svg width="26" height="22" viewBox="0 0 26 22" fill="none" xmlns="http://www.w3.org/2000/svg">
<g clip-path="url(#clip0_567_5986)">
<path d="M0.400095 20.1573C0.400095 17.3392 0.400095 14.5211 0.40064 11.703C0.40064 11.6309 0.397919 11.5577 0.407721 11.4867C0.45401 11.1446 0.71106 10.8968 1.03673 10.8784C1.22842 10.8681 1.38472 10.9689 1.54374 11.054C2.72606 11.6856 3.90619 12.3205 5.08905 12.9515C5.34828 13.0903 5.35263 13.086 5.35318 12.803C5.35481 12.3243 5.34937 11.8456 5.35536 11.3668C5.36189 10.9011 5.61676 10.655 6.08784 10.649C6.34706 10.6458 6.60629 10.6485 6.87096 10.6485C6.85571 10.5352 6.78437 10.5016 6.73481 10.4544C5.33575 9.12126 4.72799 7.49752 4.97904 5.58427C5.17128 4.11288 5.8896 2.91852 7.04578 1.98711C7.87792 1.31756 8.84021 0.950522 9.89237 0.799805H11.1449C11.1705 0.809021 11.195 0.823117 11.2217 0.826912C13.246 1.11371 14.681 2.20451 15.6008 4.00282C15.756 4.30697 15.8317 4.64148 15.9651 4.9646C17.8805 2.88762 20.5484 3.33056 21.8843 4.4772C22.8041 5.26712 23.3253 6.25708 23.4086 7.45632C23.492 8.66368 23.0677 9.7122 22.2405 10.6485C22.4262 10.6485 22.5525 10.6458 22.6789 10.6496C23.0977 10.6615 23.3896 10.9098 23.3776 11.318C23.3607 11.9047 23.437 12.4896 23.3836 13.0768C23.3613 13.318 23.3901 13.5631 23.3885 13.8065C23.3874 14.0001 23.4686 14.076 23.6695 14.0695C24.0496 14.057 24.4314 14.0592 24.8121 14.0684C25.2946 14.0803 25.5691 14.3058 25.5827 14.7634C25.6061 15.5484 25.605 16.3351 25.5848 17.1201C25.5734 17.5631 25.3055 17.7848 24.8611 17.787C24.4526 17.7897 24.0442 17.7956 23.6363 17.7875C23.4484 17.7837 23.3787 17.8526 23.3814 18.0407C23.3912 18.816 23.3825 19.5918 23.3978 20.3665C23.4059 20.8111 23.2431 21.0935 22.9038 21.1998H5.83351C5.47081 21.1006 5.35372 20.836 5.35372 20.2852V18.7851C4.82492 19.0675 4.33969 19.3256 3.85555 19.5853C3.03321 20.025 2.21523 20.4739 1.3869 20.9027C0.920729 21.1445 0.450199 20.8669 0.403908 20.347C0.398462 20.2841 0.400095 20.2207 0.400095 20.1573ZM23.3967 15.5755C23.3999 15.6927 23.3972 15.8098 23.3972 15.9269C23.3988 16.508 23.3994 16.4929 23.993 16.5124C24.2441 16.5211 24.3089 16.4267 24.3012 16.2072C24.2942 16 24.3018 15.7924 24.3023 15.5848C24.3023 15.549 24.3143 15.5013 24.2958 15.4785C24.0845 15.2204 23.7959 15.3956 23.5448 15.356C23.3792 15.33 23.3929 15.4639 23.3967 15.5755ZM10.5497 2.06518C8.16274 2.06627 6.2071 3.98819 6.20819 6.3319C6.20928 8.6832 8.15021 10.6447 10.4784 10.6479C12.8996 10.6512 14.8302 8.72603 14.8297 6.30804C14.8297 4.00716 12.8697 2.0641 10.5497 2.06518ZM15.3247 9.43896C15.2871 9.35167 15.2332 9.3598 15.1875 9.43082C14.9048 9.87213 14.541 10.244 14.1059 10.6463C14.791 10.6463 15.396 10.6469 16.0011 10.6463C16.0245 10.6458 16.0479 10.6311 16.1002 10.6127C15.7963 10.2392 15.5099 9.87159 15.3247 9.4395V9.43896ZM19.1962 4.81388C17.5483 4.82038 16.2107 6.15136 16.244 7.75125C16.2772 9.36197 17.6131 10.6582 19.23 10.6479C20.8022 10.6382 22.131 9.28119 22.1272 7.68944C22.1229 6.12046 20.7843 4.80737 19.1962 4.81388ZM6.64387 19.5734C6.64387 19.929 6.64495 19.9306 7.00657 19.9306H21.7101C22.0771 19.9306 22.0788 19.929 22.0788 19.5766C22.0793 17.1375 22.0749 14.6978 22.0842 12.2587C22.0853 11.9909 21.9965 11.9263 21.7411 11.9274C19.2817 11.9356 16.8218 11.9323 14.3624 11.9323H7.01038C6.64495 11.9323 6.64387 11.9328 6.64387 12.2814C6.64332 14.7119 6.64332 17.1424 6.64387 19.5734ZM1.69024 19.0692C1.68425 19.2226 1.72727 19.2665 1.87758 19.1852C2.98528 18.5877 4.09462 17.9935 5.20559 17.4031C5.3314 17.3359 5.3559 17.2394 5.35481 17.1131C5.35155 16.7249 5.35372 16.3367 5.35372 15.9485C5.35372 15.5604 5.34828 15.1543 5.3559 14.7569C5.35917 14.6105 5.30308 14.5287 5.1751 14.4603C4.08046 13.877 2.98801 13.2898 1.89827 12.6984C1.72782 12.6057 1.68207 12.6393 1.68915 12.8279C1.72292 13.8092 1.6788 14.7921 1.70385 15.7723C1.72346 16.5476 1.64667 17.3218 1.71692 18.0971C1.74579 18.4175 1.70276 18.745 1.69024 19.0692Z" fill="white"/>
<path d="M11.8998 14.5162C11.902 13.9101 12.1323 13.6851 12.7428 13.6846C13.8042 13.6835 14.8656 13.6846 15.9271 13.6846C16.9885 13.6846 18.0493 13.6835 19.1108 13.6846C19.6657 13.6851 19.9184 13.9193 19.9227 14.4663C19.9309 15.4503 19.9298 16.4349 19.9227 17.4189C19.9189 17.9442 19.6886 18.1969 19.1614 18.1996C17.0119 18.211 14.8618 18.2121 12.7123 18.2018C12.1154 18.1985 11.9014 17.9551 11.8998 17.3609C11.8965 16.4127 11.8965 15.4644 11.8992 14.5162H11.8998ZM13.1562 16.6517C13.1616 16.8724 13.2313 16.9532 13.4568 16.9526C15.1254 16.9472 16.7935 16.9494 18.4621 16.9543C18.6429 16.9548 18.699 16.8789 18.6969 16.7098C18.6914 16.1953 18.6871 15.6802 18.699 15.1657C18.7039 14.9527 18.6108 14.9098 18.4213 14.9114C17.5783 14.918 16.7347 14.9142 15.8911 14.9142C15.0475 14.9142 14.2225 14.9185 13.3882 14.9109C13.2128 14.9093 13.1665 14.9586 13.1534 15.1381C13.1153 15.6444 13.1447 16.147 13.1562 16.6517Z" fill="white"/>
<path d="M8.62411 14.9168C8.62302 15.2523 8.9269 15.5587 9.26292 15.5603C9.59348 15.5619 9.90771 15.2513 9.90771 14.9222C9.90771 14.585 9.60873 14.2862 9.26727 14.283C8.9269 14.2797 8.62574 14.5768 8.62411 14.9168Z" fill="white"/>
<path d="M9.27653 16.3345C8.91383 16.3307 8.63282 16.5991 8.62465 16.9569C8.61648 17.2957 8.92091 17.6015 9.26564 17.6004C9.60111 17.5999 9.91207 17.2854 9.90717 16.9515C9.90227 16.611 9.62398 16.3383 9.27653 16.3345Z" fill="white"/>
<path d="M10.5199 3.62232C12.0159 3.62503 13.2652 4.87902 13.2673 6.37969C13.269 7.81639 12.0028 9.07634 10.5493 9.08447C9.03529 9.09315 7.77837 7.84295 7.77891 6.32873C7.77946 4.87848 9.05435 3.61961 10.5199 3.62232ZM10.503 7.77735C11.3237 7.77952 11.944 7.17557 11.9483 6.3721C11.9521 5.55996 11.3406 4.93649 10.5378 4.93215C9.72203 4.92836 9.09411 5.53882 9.09138 6.33903C9.08866 7.1528 9.70024 7.77627 10.503 7.77735Z" fill="white"/>
<path d="M19.1826 5.82324C20.244 5.82433 21.08 6.65165 21.0832 7.7045C21.0865 8.7747 20.2625 9.60961 19.1864 9.62534C18.1506 9.64052 17.2793 8.7644 17.2803 7.70938C17.282 6.66412 18.131 5.82216 19.1826 5.82324ZM19.1701 8.45484C19.5889 8.46026 19.932 8.11708 19.9238 7.70016C19.9162 7.30114 19.5954 6.99537 19.1853 6.99483C18.7524 6.99429 18.4561 7.29193 18.4572 7.7251C18.4588 8.1328 18.7682 8.44996 19.1701 8.45484Z" fill="white"/>
</g>
<defs>
<clipPath id="clip0_567_5986">
<rect width="25.2" height="20.4" fill="white" transform="matrix(-1 0 0 1 25.6001 0.799805)"/>
</clipPath>
</defs>
</svg>
