<svg width="40" height="40" viewBox="0 0 40 40" fill="none" xmlns="http://www.w3.org/2000/svg">
<path d="M29.6006 15.4908H10.4006C9.9186 15.4908 9.52786 15.8816 9.52786 16.3636V28.7272C9.52786 29.2092 9.9186 29.5999 10.4006 29.5999H20.0006H29.6006C30.0826 29.5999 30.4733 29.2092 30.4733 28.7272V16.3636C30.4733 15.8816 30.0826 15.4908 29.6006 15.4908Z" stroke="#7F685F" stroke-width="2" stroke-linecap="round" stroke-linejoin="round"/>
<path d="M24.3636 13.0909V11.3454C24.3636 10.8825 24.1797 10.4385 23.8524 10.1112C23.525 9.78387 23.0811 9.59998 22.6181 9.59998H17.3818C16.9189 9.59998 16.4749 9.78387 16.1476 10.1112C15.8202 10.4385 15.6363 10.8825 15.6363 11.3454V13.0909" stroke="#7F685F" stroke-width="2" stroke-linecap="round" stroke-linejoin="round"/>
<path d="M30.4735 19.8154C27.2905 21.6569 23.6771 22.6238 19.9999 22.6181C16.3232 22.6238 12.7104 21.6573 9.52786 19.8164" stroke="#7F685F" stroke-width="2" stroke-linecap="round" stroke-linejoin="round"/>
<path d="M18.6909 19.1273H21.3091" stroke="#7F685F" stroke-width="2" stroke-linecap="round" stroke-linejoin="round"/>
<rect width="40" height="40" fill="#EF7D00" fill-opacity="0.08"/>
</svg>
