<svg width="64" height="64" viewBox="0 0 64 64" fill="none" xmlns="http://www.w3.org/2000/svg">
<circle cx="32" cy="32" r="31" stroke="#F5F4EC" stroke-width="2"/>
<path d="M28.5828 21.1857L28.5818 21.185C28.4322 21.0779 28.256 21.0141 28.0725 21.0007C27.8891 20.9873 27.7055 21.0247 27.542 21.1089L28.5828 21.1857ZM28.5828 21.1857L42.5828 31.1857L42.5831 31.1859M28.5828 21.1857L42.5831 31.1859M42.5831 31.1859C42.7128 31.2784 42.8184 31.4006 42.8913 31.5422L43.7804 31.0844M42.5831 31.1859L43.7804 31.0844M43.7804 31.0844L42.8913 31.5422C42.9642 31.6837 43.0023 31.8407 43.0023 31.9999C43.0023 32.1592 42.9642 32.3161 42.8913 32.4577L43.7804 32.9155L42.8913 32.4577C42.8184 32.5993 42.7128 32.7214 42.5831 32.8139L42.5828 32.8142M43.7804 31.0844L42.5828 32.8142M42.5828 32.8142L28.5828 42.8142L28.582 42.8148M42.5828 32.8142L28.582 42.8148M28.582 42.8148C28.4325 42.9218 28.2563 42.9855 28.0729 42.9989C27.8895 43.0123 27.706 42.9749 27.5425 42.8908C27.379 42.8066 27.2418 42.679 27.1461 42.522C27.0504 42.365 26.9999 42.1846 27 42.0008V41.9999M28.582 42.8148L27 41.9999M27 41.9999L27 21.9999L27 21.9989M27 41.9999L27 21.9989M27 21.9989C26.9998 21.8151 27.0503 21.6347 27.1459 21.4777M27 21.9989L27.1459 21.4777M27.1459 21.4777C27.2415 21.3208 27.3785 21.1932 27.5418 21.109L27.1459 21.4777Z" stroke="#F5F4EC" stroke-width="2"/>
</svg>
