<svg width="479" height="607" viewBox="0 0 479 607" fill="none" xmlns="http://www.w3.org/2000/svg">
<g opacity="0.15">
<path d="M119.509 -9.62977e-06L119.509 130.341L239.339 130.341C239.339 58.3927 185.655 -4.31414e-06 119.509 -9.62977e-06Z" fill="#080708" fill-opacity="0.2"/>
<path d="M359.17 260.681L359.17 391.022L479 391.022C479 319.074 425.316 260.681 359.17 260.681Z" fill="#080708" fill-opacity="0.2"/>
<path d="M239.338 391.022L239.338 521.363L359.168 521.363C359.168 449.415 305.484 391.022 239.338 391.022Z" fill="#080708" fill-opacity="0.2"/>
<path d="M239.338 130.341L239.338 260.682L359.168 260.682C359.168 188.733 305.484 130.341 239.338 130.341Z" fill="#080708" fill-opacity="0.2"/>
<path d="M239.339 260.681L239.339 391.022L119.509 391.022C119.509 319.074 173.193 260.681 239.339 260.681Z" fill="#080708" fill-opacity="0.2"/>
<path d="M239.339 521.363L239.339 651.704L119.509 651.704C119.509 579.756 173.193 521.363 239.339 521.363Z" fill="#080708" fill-opacity="0.2"/>
<path d="M119.509 130.341L119.509 260.681C185.655 260.681 239.339 202.289 239.339 130.341L119.509 130.341Z" fill="#080708" fill-opacity="0.2"/>
<path d="M119.509 391.022L119.509 521.363C185.655 521.363 239.339 462.971 239.339 391.022L119.509 391.022Z" fill="#080708" fill-opacity="0.2"/>
<path d="M239.338 521.363L239.338 651.704C305.484 651.704 359.168 593.311 359.168 521.363L239.338 521.363Z" fill="#080708" fill-opacity="0.2"/>
<path d="M359.17 391.022L359.17 521.363C425.316 521.363 479 462.971 479 391.022L359.17 391.022Z" fill="#080708" fill-opacity="0.2"/>
<path d="M-0.322495 260.681L-0.322507 391.022C65.8238 391.022 119.508 332.63 119.508 260.681L-0.322495 260.681Z" fill="#080708" fill-opacity="0.2"/>
<path d="M359.168 260.681L359.168 391.022C293.022 391.022 239.338 332.629 239.338 260.681L359.168 260.681Z" fill="#080708" fill-opacity="0.2"/>
<path d="M119.508 521.363L119.508 651.704C53.3613 651.704 -0.322623 593.311 -0.322617 521.363L119.508 521.363Z" fill="#080708" fill-opacity="0.2"/>
<path d="M119.508 130.049C53.3615 130.049 -0.3225 188.441 -0.322507 260.389L119.508 260.389L119.508 130.049Z" fill="#080708" fill-opacity="0.2"/>
<path d="M119.508 391.022C53.3615 391.022 -0.3225 449.415 -0.322507 521.363L119.508 521.363L119.508 391.022Z" fill="#080708" fill-opacity="0.2"/>
</g>
</svg>
