<svg width="40" height="40" viewBox="0 0 40 40" fill="none" xmlns="http://www.w3.org/2000/svg">
<path d="M12.8502 29.4504C14.9765 29.4504 16.7002 27.7267 16.7002 25.6004C16.7002 23.4742 14.9765 21.7505 12.8502 21.7505C10.7239 21.7505 9.00024 23.4742 9.00024 25.6004C9.00024 27.7267 10.7239 29.4504 12.8502 29.4504Z" stroke="#7F685F" stroke-width="2" stroke-linecap="round" stroke-linejoin="round"/>
<path d="M27.1499 29.4504C29.2761 29.4504 30.9998 27.7267 30.9998 25.6004C30.9998 23.4742 29.2761 21.7505 27.1499 21.7505C25.0236 21.7505 23.2999 23.4742 23.2999 25.6004C23.2999 27.7267 25.0236 29.4504 27.1499 29.4504Z" stroke="#7F685F" stroke-width="2" stroke-linecap="round" stroke-linejoin="round"/>
<path d="M20.0001 25.6004V21.7504L16.7001 18.4505L21.1001 15.1505L23.3001 18.4505H25.5" stroke="#7F685F" stroke-width="2" stroke-linecap="round" stroke-linejoin="round"/>
<path d="M23.0359 13.2073C22.8296 13.4136 22.5498 13.5294 22.2581 13.5294C21.9663 13.5294 21.6865 13.4136 21.4803 13.2073C21.274 13.001 21.1581 12.7212 21.1581 12.4295C21.1581 12.1377 21.274 11.8579 21.4803 11.6516C21.6865 11.4454 21.9663 11.3295 22.2581 11.3295C22.5498 11.3295 22.8296 11.4454 23.0359 11.6516C23.2422 11.8579 23.3581 12.1377 23.3581 12.4295C23.3581 12.7212 23.2422 13.001 23.0359 13.2073Z" stroke="#7F685F" stroke-width="1.5" stroke-linecap="round" stroke-linejoin="round"/>
<rect width="40" height="40" fill="#EF7D00" fill-opacity="0.08"/>
</svg>
