<svg width="29" height="30" viewBox="0 0 29 30" fill="none" xmlns="http://www.w3.org/2000/svg">
<path d="M14.9991 22.0052L14.5438 21.1148L14.5438 21.1148L14.9991 22.0052ZM14.2008 22.0052L14.6561 21.1148L14.6561 21.1148L14.2008 22.0052ZM22 11.4C22 14.0879 20.6101 16.2858 18.9204 17.9652C17.2324 19.6429 15.3339 20.7108 14.5438 21.1148L15.4543 22.8956C16.3331 22.4463 18.435 21.2674 20.3303 19.3837C22.2238 17.5018 24 14.8237 24 11.4H22ZM14.6 4C18.6869 4 22 7.31309 22 11.4H24C24 6.20852 19.7914 2 14.6 2V4ZM7.19995 11.4C7.19995 7.31309 10.513 4 14.6 4V2C9.40847 2 5.19995 6.20852 5.19995 11.4H7.19995ZM14.6561 21.1148C13.866 20.7108 11.9675 19.6429 10.2795 17.9652C8.58979 16.2858 7.19995 14.0879 7.19995 11.4H5.19995C5.19995 14.8237 6.97614 17.5018 8.86963 19.3837C10.7649 21.2674 12.8668 22.4463 13.7456 22.8956L14.6561 21.1148ZM14.5438 21.1148C14.5563 21.1084 14.576 21.1024 14.6 21.1024C14.6239 21.1024 14.6436 21.1084 14.6561 21.1148L13.7456 22.8955C14.2851 23.1714 14.9148 23.1714 15.4544 22.8955L14.5438 21.1148ZM17.2 11.4C17.2 12.8359 16.0359 14 14.6 14V16C17.1405 16 19.2 13.9405 19.2 11.4H17.2ZM14.6 8.8C16.0359 8.8 17.2 9.96406 17.2 11.4H19.2C19.2 8.85949 17.1405 6.8 14.6 6.8V8.8ZM12 11.4C12 9.96406 13.164 8.8 14.6 8.8V6.8C12.0594 6.8 9.99995 8.85949 9.99995 11.4H12ZM14.6 14C13.164 14 12 12.8359 12 11.4H9.99995C9.99995 13.9405 12.0594 16 14.6 16V14Z" fill="white"/>
<path d="M23.9531 21.6C24.901 22.1473 25.4 22.7681 25.4 23.4C25.4 24.032 24.901 24.6528 23.9531 25.2C23.0052 25.7473 21.6419 26.2018 20 26.5177C18.3582 26.8337 16.4958 27 14.6 27C12.7043 27 10.8419 26.8337 9.20005 26.5177C7.55824 26.2018 6.19487 25.7473 5.24697 25.2C4.29908 24.6528 3.80005 24.032 3.80005 23.4C3.80005 22.7681 4.29908 22.1473 5.24697 21.6" stroke="white" stroke-width="2" stroke-linecap="round"/>
</svg>
