<svg width="24" height="24" viewBox="0 0 24 24" fill="none" xmlns="http://www.w3.org/2000/svg">
<path d="M0.269775 23.6001L1.91872 17.6123C0.899271 15.8548 0.364478 13.8644 0.370049 11.8296C0.370049 5.45368 5.58428 0.269775 11.9851 0.269775C15.0936 0.269775 18.0126 1.47289 20.2019 3.65733C22.3968 5.84178 23.6057 8.74699 23.6001 11.8352C23.6001 18.2111 18.3859 23.395 11.9795 23.395H11.9739C10.0297 23.395 8.11897 22.9071 6.41989 21.9867L0.269775 23.6001ZM6.71514 19.8966L7.0661 20.1072C8.54792 20.9832 10.247 21.4434 11.9795 21.449H11.9851C17.3052 21.449 21.6392 17.141 21.6392 11.8407C21.6392 9.2737 20.6365 6.86193 18.8148 5.04341C16.9932 3.22488 14.5643 2.22691 11.9851 2.22691C6.66501 2.22136 2.33096 6.52928 2.33096 11.8296C2.33096 13.6426 2.83789 15.4112 3.80721 16.9414L4.03561 17.3074L3.06073 20.8502L6.71514 19.8966Z" fill="white"/>
<path d="M0.269775 23.6001L1.91872 17.6123C0.899271 15.8548 0.364478 13.8644 0.370049 11.8296C0.370049 5.45368 5.58428 0.269775 11.9851 0.269775C15.0936 0.269775 18.0126 1.47289 20.2019 3.65733C22.3968 5.84178 23.6057 8.74699 23.6001 11.8352C23.6001 18.2111 18.3859 23.395 11.9795 23.395H11.9739C10.0297 23.395 8.11897 22.9071 6.41989 21.9867L0.269775 23.6001ZM6.71514 19.8966L7.0661 20.1072C8.54792 20.9832 10.247 21.4434 11.9795 21.449H11.9851C17.3052 21.449 21.6392 17.141 21.6392 11.8407C21.6392 9.2737 20.6365 6.86193 18.8148 5.04341C16.9932 3.22488 14.5643 2.22691 11.9851 2.22691C6.66501 2.22136 2.33096 6.52928 2.33096 11.8296C2.33096 13.6426 2.83789 15.4112 3.80721 16.9414L4.03561 17.3074L3.06073 20.8502L6.71514 19.8966Z" fill="white"/>
<path fill-rule="evenodd" clip-rule="evenodd" d="M9.08252 6.99476C8.86526 6.51241 8.63686 6.50132 8.43074 6.49578C8.26362 6.49023 8.06864 6.49023 7.87366 6.49023C7.67869 6.49023 7.36672 6.56231 7.09933 6.85061C6.83193 7.13892 6.08545 7.8375 6.08545 9.26238C6.08545 10.6817 7.12718 12.0567 7.27202 12.2507C7.41686 12.4448 9.28306 15.4553 12.23 16.6141C14.6811 17.5788 15.1825 17.3848 15.7117 17.3349C16.2409 17.285 17.4275 16.6363 17.6726 15.9599C17.9122 15.2835 17.9122 14.7069 17.8397 14.5849C17.7673 14.4629 17.5724 14.3908 17.2827 14.2467C16.993 14.1025 15.5669 13.404 15.2995 13.3042C15.0321 13.2099 14.8371 13.16 14.6477 13.4483C14.4527 13.7366 13.8957 14.3853 13.7285 14.5793C13.5614 14.7734 13.3887 14.7956 13.099 14.6514C12.8094 14.5073 11.8735 14.2023 10.7649 13.2155C9.90142 12.4503 9.31649 11.5023 9.14937 11.214C8.98224 10.9257 9.13265 10.7704 9.27749 10.6263C9.40562 10.4988 9.56717 10.2881 9.71201 10.1217C9.85685 9.95541 9.90699 9.83344 10.0017 9.63939C10.0964 9.44534 10.0518 9.27901 9.97941 9.13486C9.90699 8.99625 9.33877 7.56583 9.08252 6.99476Z" fill="white"/>
</svg>
