<svg xmlns="http://www.w3.org/2000/svg" width="224" height="153" viewBox="0 0 224 153" version="1.1"><path d="M -0 76.504 L -0 153.009 112.250 152.754 L 224.500 152.500 224.756 76.250 L 225.012 0 112.506 0 L 0 0 -0 76.504 M 0.476 77 C 0.476 119.075, 0.599 136.288, 0.750 115.250 C 0.900 94.213, 0.900 59.788, 0.750 38.750 C 0.599 17.713, 0.476 34.925, 0.476 77 M 64 74 L 64 87 70.953 87 C 82.499 87, 89.563 79.174, 82.151 74.593 C 81.529 74.209, 81.696 72.913, 82.599 71.103 C 85.826 64.633, 81.453 61, 70.435 61 L 64 61 64 74 M 92 70.596 C 92 83.444, 94.774 88, 102.597 88 C 110.517 88, 113 83.959, 113 71.066 L 113 61 110.500 61 C 108.023 61, 108 61.079, 108 69.809 C 108 79.724, 106.895 82.250, 102.558 82.250 C 98.617 82.250, 98.033 80.706, 98.015 70.250 L 98 61 95 61 L 92 61 92 70.596 M 123 74 L 123 87 125.500 87 L 128 87 128 74 L 128 61 125.500 61 L 123 61 123 74 M 135 63.500 C 135 65.750, 135.400 66, 139 66 L 143 66 143 76.500 L 143 87 145.965 87 L 148.930 87 149.215 76.750 L 149.500 66.500 153.250 66.190 C 163.916 65.307, 157.899 61, 146 61 L 135 61 135 63.500 M 69.184 68.750 C 69.561 72.030, 74.728 73.237, 76.947 70.564 C 79.140 67.921, 77.464 66, 72.965 66 C 69.085 66, 68.884 66.146, 69.184 68.750 M 69 79 C 69 81.892, 69.163 82, 73.531 82 C 78.431 82, 80.226 80.183, 77.989 77.487 C 75.485 74.469, 69 75.560, 69 79" stroke="none" fill="#fe914c" fill-rule="evenodd"/><path d="M 64 74 L 64 87 70.953 87 C 82.499 87, 89.563 79.174, 82.151 74.593 C 81.529 74.209, 81.696 72.913, 82.599 71.103 C 85.826 64.633, 81.453 61, 70.435 61 L 64 61 64 74 M 92 70.596 C 92 83.444, 94.774 88, 102.597 88 C 110.517 88, 113 83.959, 113 71.066 L 113 61 110.500 61 C 108.023 61, 108 61.079, 108 69.809 C 108 79.724, 106.895 82.250, 102.558 82.250 C 98.617 82.250, 98.033 80.706, 98.015 70.250 L 98 61 95 61 L 92 61 92 70.596 M 123 74 L 123 87 125.500 87 L 128 87 128 74 L 128 61 125.500 61 L 123 61 123 74 M 135 63.500 C 135 65.750, 135.400 66, 139 66 L 143 66 143 76.500 L 143 87 145.965 87 L 148.930 87 149.215 76.750 L 149.500 66.500 153.250 66.190 C 163.916 65.307, 157.899 61, 146 61 L 135 61 135 63.500 M 69.184 68.750 C 69.561 72.030, 74.728 73.237, 76.947 70.564 C 79.140 67.921, 77.464 66, 72.965 66 C 69.085 66, 68.884 66.146, 69.184 68.750 M 69 79 C 69 81.892, 69.163 82, 73.531 82 C 78.431 82, 80.226 80.183, 77.989 77.487 C 75.485 74.469, 69 75.560, 69 79" stroke="none" fill="#0a0705" fill-rule="evenodd"/></svg>