<svg xmlns="http://www.w3.org/2000/svg" width="86" height="38" viewBox="0 0 86 38" version="1.1"><path d="M 8.750 7.571 C 8.338 7.990, 8 13.240, 8 19.238 C 8 27.356, 8.365 30.508, 9.429 31.571 C 11.369 33.512, 21.872 33.478, 24.663 31.523 C 27.548 29.503, 28.455 25.343, 26.621 22.544 C 25.669 21.091, 25.333 18.924, 25.668 16.400 C 26.416 10.761, 23.019 7.771, 15.236 7.217 C 12.081 6.992, 9.162 7.151, 8.750 7.571 M 29.156 16.937 C 29.479 26.276, 29.671 27.052, 32.348 29.844 C 35.913 33.561, 40.712 34.565, 45.454 32.584 C 49.973 30.695, 51 27.971, 51 17.863 C 51 9.107, 49.773 6.609, 45.752 7.180 C 43.647 7.479, 43.481 8.050, 43.206 15.950 C 42.903 24.679, 42.018 27, 38.994 27 C 36.773 27, 36.031 24.250, 36.014 15.950 C 35.999 8.870, 34.995 7, 31.206 7 C 28.819 7, 28.813 7.026, 29.156 16.937 M 52.667 7.667 C 52.300 8.033, 52 13.378, 52 19.544 C 52 31.636, 52.714 33.462, 57.195 32.827 C 59.409 32.513, 59.511 32.093, 59.785 22.250 C 59.944 16.528, 60.496 12, 61.035 12 C 61.566 12, 62 12.450, 62 13 C 62 13.550, 62.900 14, 64 14 C 65.835 14, 66 14.667, 66 22.071 C 66 30.941, 67.023 33, 71.429 33 L 74 33 74 23.500 L 74 14 77 14 C 79.464 14, 80 13.589, 80 11.700 C 80 10.435, 79.460 8.860, 78.800 8.200 C 77.115 6.515, 60.328 6.559, 59.708 8.250 C 59.342 9.250, 58.985 9.250, 57.925 8.250 C 56.492 6.898, 53.740 6.593, 52.667 7.667 M 9.217 19.250 L 9.500 30.500 12.174 30.809 C 16.855 31.350, 22.984 29.129, 24.205 26.449 C 25.600 23.387, 23.886 19.015, 21.271 18.968 C 19.587 18.938, 19.586 18.871, 21.250 17.608 C 22.228 16.866, 23 14.965, 23 13.300 C 23 9.662, 19.996 8, 13.420 8 L 8.934 8 9.217 19.250 M 30.150 17.489 C 30.450 25.771, 30.788 27.374, 32.500 28.625 C 36.889 31.833, 42.434 31.566, 46.025 27.975 C 47.701 26.299, 48 24.628, 48 16.927 C 48 8.825, 47.813 7.889, 46.250 8.188 C 44.777 8.469, 44.454 9.857, 44.206 16.961 C 43.894 25.937, 43.033 28.009, 39.628 27.985 C 35.287 27.953, 34.524 26.504, 34 17.299 C 33.572 9.776, 33.235 8.469, 31.650 8.167 C 29.935 7.841, 29.826 8.518, 30.150 17.489 M 53 19.500 C 53 30.054, 53.164 31.115, 54.750 30.810 C 56.290 30.513, 56.500 29.155, 56.500 19.500 C 56.500 9.845, 56.290 8.487, 54.750 8.190 C 53.164 7.885, 53 8.946, 53 19.500 M 61 9.500 C 61 10.496, 61.996 11, 63.964 11 L 66.928 11 67.214 20.738 C 67.459 29.084, 67.750 30.525, 69.250 30.812 C 70.823 31.113, 71 30.128, 71 21.073 L 71 11 74.500 11 C 76.944 11, 78 10.548, 78 9.500 C 78 8.284, 76.389 8, 69.500 8 C 62.611 8, 61 8.284, 61 9.500 M 13 14.500 C 13 18.355, 15.024 19.165, 18.431 16.674 C 21.246 14.616, 19.653 11, 15.933 11 C 13.248 11, 13 11.296, 13 14.500 M 15.500 14 C 14.423 15.742, 16.019 17.229, 17.578 15.935 C 18.348 15.296, 18.731 14.374, 18.430 13.887 C 17.700 12.706, 16.265 12.762, 15.500 14 M 13 24 C 13 27.714, 13.200 28, 15.800 28 C 19.001 28, 21 26.399, 21 23.835 C 21 21.840, 18.152 20, 15.066 20 C 13.322 20, 13 20.624, 13 24 M 15 25.070 C 15 26.641, 15.539 27.062, 17.240 26.820 C 20.564 26.345, 20.856 23, 17.573 23 C 15.638 23, 15 23.513, 15 25.070" stroke="none" fill="#ef8e4c" fill-rule="evenodd"/><path d="M 0 19.011 L 0 38.021 43.250 37.761 L 86.500 37.500 86.772 18.750 L 87.044 0 43.522 0 L 0 0 0 19.011 M 0.417 19.500 C 0.418 29.950, 0.566 34.089, 0.746 28.698 C 0.926 23.307, 0.925 14.757, 0.744 9.698 C 0.563 4.639, 0.416 9.050, 0.417 19.500 M 8.750 7.571 C 8.338 7.990, 8 13.240, 8 19.238 C 8 27.356, 8.365 30.508, 9.429 31.571 C 11.369 33.512, 21.872 33.478, 24.663 31.523 C 27.548 29.503, 28.455 25.343, 26.621 22.544 C 25.669 21.091, 25.333 18.924, 25.668 16.400 C 26.416 10.761, 23.019 7.771, 15.236 7.217 C 12.081 6.992, 9.162 7.151, 8.750 7.571 M 29.156 16.937 C 29.479 26.276, 29.671 27.052, 32.348 29.844 C 35.913 33.561, 40.712 34.565, 45.454 32.584 C 49.973 30.695, 51 27.971, 51 17.863 C 51 9.107, 49.773 6.609, 45.752 7.180 C 43.647 7.479, 43.481 8.050, 43.206 15.950 C 42.903 24.679, 42.018 27, 38.994 27 C 36.773 27, 36.031 24.250, 36.014 15.950 C 35.999 8.870, 34.995 7, 31.206 7 C 28.819 7, 28.813 7.026, 29.156 16.937 M 52.667 7.667 C 52.300 8.033, 52 13.378, 52 19.544 C 52 31.636, 52.714 33.462, 57.195 32.827 C 59.409 32.513, 59.511 32.093, 59.785 22.250 C 59.944 16.528, 60.496 12, 61.035 12 C 61.566 12, 62 12.450, 62 13 C 62 13.550, 62.900 14, 64 14 C 65.835 14, 66 14.667, 66 22.071 C 66 30.941, 67.023 33, 71.429 33 L 74 33 74 23.500 L 74 14 77 14 C 79.464 14, 80 13.589, 80 11.700 C 80 10.435, 79.460 8.860, 78.800 8.200 C 77.115 6.515, 60.328 6.559, 59.708 8.250 C 59.342 9.250, 58.985 9.250, 57.925 8.250 C 56.492 6.898, 53.740 6.593, 52.667 7.667 M 9.217 19.250 L 9.500 30.500 12.174 30.809 C 16.855 31.350, 22.984 29.129, 24.205 26.449 C 25.600 23.387, 23.886 19.015, 21.271 18.968 C 19.587 18.938, 19.586 18.871, 21.250 17.608 C 22.228 16.866, 23 14.965, 23 13.300 C 23 9.662, 19.996 8, 13.420 8 L 8.934 8 9.217 19.250 M 30.150 17.489 C 30.450 25.771, 30.788 27.374, 32.500 28.625 C 36.889 31.833, 42.434 31.566, 46.025 27.975 C 47.701 26.299, 48 24.628, 48 16.927 C 48 8.825, 47.813 7.889, 46.250 8.188 C 44.777 8.469, 44.454 9.857, 44.206 16.961 C 43.894 25.937, 43.033 28.009, 39.628 27.985 C 35.287 27.953, 34.524 26.504, 34 17.299 C 33.572 9.776, 33.235 8.469, 31.650 8.167 C 29.935 7.841, 29.826 8.518, 30.150 17.489 M 53 19.500 C 53 30.054, 53.164 31.115, 54.750 30.810 C 56.290 30.513, 56.500 29.155, 56.500 19.500 C 56.500 9.845, 56.290 8.487, 54.750 8.190 C 53.164 7.885, 53 8.946, 53 19.500 M 61 9.500 C 61 10.496, 61.996 11, 63.964 11 L 66.928 11 67.214 20.738 C 67.459 29.084, 67.750 30.525, 69.250 30.812 C 70.823 31.113, 71 30.128, 71 21.073 L 71 11 74.500 11 C 76.944 11, 78 10.548, 78 9.500 C 78 8.284, 76.389 8, 69.500 8 C 62.611 8, 61 8.284, 61 9.500 M 13 14.500 C 13 18.355, 15.024 19.165, 18.431 16.674 C 21.246 14.616, 19.653 11, 15.933 11 C 13.248 11, 13 11.296, 13 14.500 M 15.500 14 C 14.423 15.742, 16.019 17.229, 17.578 15.935 C 18.348 15.296, 18.731 14.374, 18.430 13.887 C 17.700 12.706, 16.265 12.762, 15.500 14 M 13 24 C 13 27.714, 13.200 28, 15.800 28 C 19.001 28, 21 26.399, 21 23.835 C 21 21.840, 18.152 20, 15.066 20 C 13.322 20, 13 20.624, 13 24 M 15 25.070 C 15 26.641, 15.539 27.062, 17.240 26.820 C 20.564 26.345, 20.856 23, 17.573 23 C 15.638 23, 15 23.513, 15 25.070" stroke="none" fill="#fbf8f6" fill-rule="evenodd"/></svg>