<svg xmlns="http://www.w3.org/2000/svg" width="377" height="155" viewBox="0 0 377 155" version="1.1"><path d="M 16 78.500 L 16 126 188.500 126 L 361 126 361 78.500 L 361 31 188.500 31 L 16 31 16 78.500 M 18 78.500 L 18 123 188 123 L 358 123 358 78.500 L 358 34 188 34 L 18 34 18 78.500 M 198 78 L 198 91 205.453 91 C 217.335 91, 222.837 86.382, 218.331 80.192 C 216.532 77.721, 216.496 77.282, 217.889 74.843 C 221.358 68.767, 216.401 65, 204.935 65 L 198 65 198 78 M 224 78 L 224 91 227.500 91 L 231 91 231 86 L 231 81 235 81 L 239 81 239 86 L 239 91 242.500 91 L 246 91 246 78 L 246 65 242.500 65 C 239.019 65, 239 65.024, 239 69.500 L 239 74 235 74 L 231 74 231 69.500 C 231 65.024, 230.981 65, 227.500 65 L 224 65 224 78 M 258.121 66.710 C 253.777 68.850, 251.007 73.441, 251.007 78.500 C 251.007 93.067, 270.754 96.921, 277.353 83.642 C 282.919 72.441, 269.848 60.933, 258.121 66.710 M 283 77.894 L 283 91 286.500 91 C 289.833 91, 290 90.833, 290 87.500 C 290 84.013, 290.017 84, 294.545 84 C 310.256 84, 306.939 65.875, 291.097 65.156 L 283 64.788 283 77.894 M 315.066 67.250 C 314.580 68.487, 312.610 73.550, 310.688 78.500 C 308.765 83.450, 306.876 88.287, 306.489 89.250 C 305.397 91.967, 312.539 91.730, 314 89 C 314.821 87.465, 316.094 87, 319.468 87 C 322.987 87, 323.992 87.399, 324.500 89 C 324.992 90.552, 326.013 91, 329.053 91 L 332.971 91 330.901 85.750 C 329.763 82.862, 327.487 77.013, 325.843 72.750 C 322.534 64.168, 317.322 61.509, 315.066 67.250 M 336 78 L 336 91 345 91 L 354 91 354 87.500 L 354 84 348.500 84 L 343 84 343 74.500 L 343 65 339.500 65 L 336 65 336 78 M 205 72.500 C 205 74.600, 205.471 75, 207.941 75 C 211.392 75, 212.666 73.507, 210.964 71.456 C 208.865 68.927, 205 69.604, 205 72.500 M 290 74.563 C 290 77.981, 290.133 78.114, 293.250 77.813 C 299.019 77.257, 298.106 71.055, 292.250 71.015 C 290.335 71.002, 290 71.530, 290 74.563 M 260 74 C 255.880 78.120, 258.962 85, 264.927 85 C 268.408 85, 272.072 80.971, 271.464 77.813 C 270.404 72.310, 263.865 70.135, 260 74 M 319.081 74.128 C 319.037 74.473, 318.319 76.386, 317.487 78.378 L 315.973 82 318.987 82 C 320.755 82, 321.981 81.483, 321.955 80.750 C 321.904 79.353, 319.209 73.141, 319.081 74.128 M 205 82.937 C 205 85.451, 205.403 85.997, 207.250 85.985 C 212.978 85.946, 213.870 80.731, 208.242 80.187 C 205.223 79.895, 205 80.084, 205 82.937" stroke="none" fill="#151416" fill-rule="evenodd"/><path d="M 15.462 79 C 15.462 105.125, 15.591 115.813, 15.749 102.750 C 15.907 89.688, 15.907 68.313, 15.749 55.250 C 15.591 42.188, 15.462 52.875, 15.462 79 M 18.460 78.500 C 18.460 103.250, 18.590 113.232, 18.749 100.682 C 18.908 88.132, 18.908 67.882, 18.749 55.682 C 18.590 43.482, 18.460 53.750, 18.460 78.500 M 25.725 39.609 C 25.326 40.007, 25 57.583, 25 78.667 L 25 117 107 117 L 189 117 189 78.500 L 189 40 109.750 39.986 C 66.162 39.979, 29.589 39.728, 28.475 39.428 C 27.361 39.129, 26.123 39.210, 25.725 39.609 M 63 78.109 L 63 91.219 70.483 90.841 C 80.585 90.331, 84.882 84.959, 79.743 79.263 C 78.356 77.725, 78.335 77.252, 79.576 75.559 C 83.652 70.001, 78.901 65, 69.545 65 L 63 65 63 78.109 M 90.223 75.177 C 90.889 89.009, 96.077 94.114, 104.855 89.575 C 109.759 87.039, 113.027 65, 108.500 65 C 107.272 65, 107 66.722, 107 74.500 C 107 85.213, 105.570 88, 100.073 88 C 94.884 88, 93 84.235, 93 73.865 C 93 66.329, 92.755 65, 91.366 65 C 89.930 65, 89.792 66.227, 90.223 75.177 M 120 78 C 120 88.889, 120.244 91, 121.500 91 C 122.756 91, 123 88.889, 123 78 C 123 67.111, 122.756 65, 121.500 65 C 120.244 65, 120 67.111, 120 78 M 132 66.500 C 132 67.583, 133.111 68, 136 68 L 140 68 140 79.500 C 140 89.056, 140.254 91, 141.500 91 C 142.746 91, 143 89.056, 143 79.500 L 143 68 147.500 68 C 150.833 68, 152 67.611, 152 66.500 C 152 65.267, 150.222 65, 142 65 C 133.778 65, 132 65.267, 132 66.500 M 197.392 78 C 197.392 85.425, 197.549 88.463, 197.742 84.750 C 197.934 81.037, 197.934 74.963, 197.742 71.250 C 197.549 67.537, 197.392 70.575, 197.392 78 M 223.392 78 C 223.392 85.425, 223.549 88.463, 223.742 84.750 C 223.934 81.037, 223.934 74.963, 223.742 71.250 C 223.549 67.537, 223.392 70.575, 223.392 78 M 246.392 78 C 246.392 85.425, 246.549 88.463, 246.742 84.750 C 246.934 81.037, 246.934 74.963, 246.742 71.250 C 246.549 67.537, 246.392 70.575, 246.392 78 M 282.392 78 C 282.392 85.425, 282.549 88.463, 282.742 84.750 C 282.934 81.037, 282.934 74.963, 282.742 71.250 C 282.549 67.537, 282.392 70.575, 282.392 78 M 343.365 74.500 C 343.368 80, 343.536 82.122, 343.738 79.216 C 343.941 76.311, 343.939 71.811, 343.734 69.216 C 343.528 66.622, 343.363 69, 343.365 74.500 M 66 72 L 66 76.105 71.147 75.802 C 74.728 75.592, 76.628 74.968, 77.392 73.750 C 79.337 70.650, 76.963 68.539, 71.147 68.198 L 66 67.895 66 72 M 250.252 78.500 C 250.263 80.700, 250.468 81.482, 250.707 80.238 C 250.946 78.994, 250.937 77.194, 250.687 76.238 C 250.437 75.282, 250.241 76.300, 250.252 78.500 M 309.111 80.111 C 308.495 81.878, 308.166 83.499, 308.380 83.713 C 308.594 83.927, 309.273 82.656, 309.889 80.889 C 310.505 79.122, 310.834 77.501, 310.620 77.287 C 310.406 77.073, 309.727 78.344, 309.111 80.111 M 66 83.500 L 66 88 71.465 88 C 75.844 88, 77.135 87.616, 77.965 86.066 C 80.342 81.625, 77.728 79, 70.929 79 L 66 79 66 83.500 M 205 80.391 C 205 80.605, 206.543 80.961, 208.430 81.182 C 210.316 81.402, 211.640 81.226, 211.371 80.791 C 210.887 80.008, 205 79.638, 205 80.391 M 290.160 87.750 C 290.314 91.357, 290.335 91.379, 290.719 88.309 C 291.060 85.578, 291.578 85.060, 294.309 84.719 C 297.379 84.335, 297.357 84.314, 293.750 84.160 C 290.029 84.001, 290.001 84.029, 290.160 87.750 M 354.252 87.500 C 354.263 89.700, 354.468 90.482, 354.707 89.238 C 354.946 87.994, 354.937 86.194, 354.687 85.238 C 354.437 84.282, 354.241 85.300, 354.252 87.500 M 314.629 87.791 C 314.360 88.226, 315.796 88.425, 317.820 88.233 C 324.004 87.647, 324.733 87.238, 319.809 87.116 C 317.229 87.052, 314.898 87.356, 314.629 87.791" stroke="none" fill="#f9944f" fill-rule="evenodd"/></svg>